<svg width="24" height="24" viewBox="0 0 24 24" fill="none" xmlns="http://www.w3.org/2000/svg">
<path d="M22.125 6.58539H11.9494L14.6287 4.39651C14.705 4.33419 14.7683 4.25746 14.8149 4.17069C14.8615 4.08392 14.8906 3.98882 14.9005 3.89081C14.9104 3.79281 14.9008 3.69381 14.8725 3.59949C14.8441 3.50517 14.7974 3.41736 14.7351 3.34108C14.6727 3.26479 14.596 3.20153 14.5092 3.15491C14.4225 3.10828 14.3274 3.0792 14.2294 3.06933C14.0314 3.04939 13.8337 3.1089 13.6796 3.23476L9.37125 6.75451C9.29443 6.8184 9.23108 6.89693 9.1849 6.98553C9.13871 7.07414 9.11062 7.17104 9.10224 7.27061C9.09387 7.37017 9.10538 7.47041 9.13611 7.56548C9.16684 7.66055 9.21618 7.74856 9.28125 7.82439C9.30937 7.85739 9.34125 7.88551 9.37125 7.91626L13.6796 11.436C13.8339 11.5596 14.0307 11.6172 14.2273 11.5964C14.4239 11.5756 14.6043 11.478 14.7293 11.3249C14.8543 11.1719 14.9138 10.9756 14.8949 10.7788C14.8761 10.5821 14.7803 10.4008 14.6284 10.2743L11.9494 8.08539H22.125C22.3239 8.08539 22.5147 8.00637 22.6553 7.86572C22.796 7.72507 22.875 7.5343 22.875 7.33539C22.875 7.13648 22.796 6.94571 22.6553 6.80506C22.5147 6.66441 22.3239 6.58539 22.125 6.58539ZM14.8099 17.0216C14.8929 16.8686 14.9202 16.6914 14.8871 16.5205C14.8541 16.3495 14.7628 16.1953 14.6287 16.0841L10.32 12.5636C10.1657 12.4401 9.96888 12.3825 9.77232 12.4033C9.57577 12.4241 9.39536 12.5216 9.27034 12.6747C9.14532 12.8278 9.08578 13.0241 9.10468 13.2208C9.12357 13.4176 9.21937 13.5989 9.37125 13.7254L12.0502 15.9143H1.875C1.67609 15.9143 1.48532 15.9933 1.34467 16.1339C1.20402 16.2746 1.125 16.4654 1.125 16.6643C1.125 16.8632 1.20402 17.0539 1.34467 17.1946C1.48532 17.3352 1.67609 17.4143 1.875 17.4143H12.0506L9.37125 19.6031C9.21719 19.729 9.11944 19.9109 9.09951 20.1088C9.07957 20.3068 9.13908 20.5045 9.26494 20.6586C9.3908 20.8126 9.57271 20.9104 9.77064 20.9303C9.96857 20.9503 10.1663 20.8908 10.3204 20.7649L14.6287 17.2451C14.7016 17.1815 14.7629 17.1062 14.8099 17.0216Z" fill="#253237"/>
</svg>
