<svg width="36.000000" height="36.000000" viewBox="0 0 36 36" fill="none" xmlns="http://www.w3.org/2000/svg" xmlns:xlink="http://www.w3.org/1999/xlink">
	<desc>
			Created with Pixso.
	</desc>
	<defs>
		<clipPath id="clip192_8682">
			<rect id="StarFill" rx="-0.500000" width="35.000000" height="35.000000" transform="translate(0.500000 0.500000)" fill="white" fill-opacity="0"/>
		</clipPath>
	</defs>
	<rect id="StarFill" rx="-0.500000" width="35.000000" height="35.000000" transform="translate(0.500000 0.500000)" fill="#FFFFFF" fill-opacity="0"/>
	<g clip-path="url(#clip192_8682)">
		<path id="Vector" d="M8.12 34.74C7.25 35.19 6.26 34.41 6.44 33.41L8.31 22.77L0.38 15.22C-0.36 14.51 0.03 13.22 1.02 13.08L12.04 11.51L16.95 1.78C17.4 0.9 18.59 0.9 19.04 1.78L23.95 11.51L34.97 13.08C35.97 13.22 36.35 14.51 35.61 15.22L27.68 22.77L29.55 33.41C29.73 34.41 28.74 35.19 27.87 34.74L17.99 29.67L8.12 34.74L8.12 34.74Z" fill="#FFFFFF" fill-opacity="0" fill-rule="nonzero"/>
		<path id="Vector" d="M8.31 22.77L6.44 33.41C6.28 34.32 7.09 35.05 7.9 34.83C7.97 34.81 8.04 34.78 8.12 34.74L8.12 34.74L8.12 34.74L8.12 34.74L8.33 34.63L17.99 29.67L27.87 34.74C28.74 35.19 29.73 34.41 29.55 33.41L27.68 22.77L35.61 15.22C36.35 14.51 35.97 13.22 34.97 13.08L23.95 11.51L19.04 1.78C18.59 0.9 17.4 0.9 16.95 1.78L12.04 11.51L1.02 13.08C0.03 13.22 -0.36 14.51 0.38 15.22L8.31 22.77ZM7.66 33.85L7.66 33.85L17.99 28.54L28.33 33.85Q28.36 33.87 28.4 33.87Q28.44 33.87 28.48 33.83Q28.52 33.8 28.55 33.76Q28.58 33.68 28.57 33.58L26.6 22.41L34.92 14.49Q34.96 14.45 34.98 14.39Q35.01 14.32 34.98 14.22Q34.95 14.12 34.89 14.09Q34.86 14.07 34.83 14.07L23.29 12.43L18.15 2.23Q18.11 2.15 18.05 2.13Q18.02 2.12 18 2.12Q17.97 2.12 17.94 2.13Q17.88 2.15 17.84 2.23L12.7 12.43L1.16 14.07Q1.13 14.07 1.1 14.09Q1.04 14.12 1.01 14.22Q0.98 14.32 1.01 14.4Q1.03 14.45 1.07 14.49L9.39 22.41L7.42 33.58L7.42 33.58Q7.41 33.68 7.44 33.75Q7.47 33.8 7.51 33.83Q7.55 33.87 7.59 33.87Q7.63 33.87 7.66 33.85Z" fill="#FFA800" fill-opacity="1.000000" fill-rule="evenodd"/>
	</g>
</svg>
