<svg width="28" height="28" viewBox="0 0 28 28" fill="none" xmlns="http://www.w3.org/2000/svg">
<path d="M22.9891 18.9419C22.8737 17.7999 21.8017 16.9032 20.5532 16.9032C20.518 16.9034 20.483 16.8969 20.4504 16.8842C20.4178 16.8714 20.3881 16.8527 20.3632 16.829C20.3383 16.8053 20.3186 16.7771 20.3052 16.7461C20.2918 16.7151 20.285 16.6818 20.2852 16.6483V12.8483C20.2852 10.0257 18.3854 7.56447 15.7697 6.64513C15.8002 6.49995 15.8171 6.35159 15.8171 6.20318C15.8172 4.98711 14.7791 4 13.5001 4C12.221 4 11.1829 4.98711 11.1829 6.20323C11.1829 6.34841 11.1999 6.49354 11.227 6.63225C10.328 6.93549 9.49681 7.41611 8.78778 8.06773C7.45111 9.29354 6.71494 10.9419 6.71494 12.7097V16.6484C6.71494 16.7871 6.59619 16.9032 6.4469 16.9032C5.19505 16.9032 4.12637 17.8 4.01102 18.9419C3.94654 19.5774 4.1671 20.2097 4.6183 20.6806C5.0661 21.1484 5.70733 21.4194 6.37563 21.4194H10.4671C10.6367 22.8678 11.9327 24 13.5001 24C15.0674 24 16.3634 22.8678 16.533 21.4194H20.6245C21.2928 21.4194 21.934 21.1484 22.3818 20.6806C22.8296 20.2096 23.0536 19.5774 22.9891 18.9419ZM13.5001 5.29029C14.0293 5.29029 14.4601 5.69998 14.4601 6.20318C14.4601 6.24509 14.4533 6.28382 14.4465 6.32573C14.2158 6.29346 13.9817 6.27089 13.7476 6.26443C13.3439 6.2515 12.947 6.27736 12.5535 6.32896C12.5467 6.28705 12.5399 6.24832 12.5399 6.20641C12.54 5.69998 12.9708 5.29029 13.5001 5.29029ZM13.5001 22.7096C12.6825 22.7096 11.9972 22.1547 11.8377 21.4193H15.1624C15.003 22.1548 14.3177 22.7096 13.5001 22.7096ZM21.3776 19.8128C21.1808 20.0161 20.9162 20.129 20.6244 20.129H6.37569C6.08391 20.129 5.81933 20.016 5.62251 19.8128C5.42575 19.6096 5.33414 19.3419 5.36468 19.0645C5.41215 18.5774 5.89055 18.1935 6.4503 18.1935C7.34596 18.1935 8.07534 17.5 8.07534 16.6484V12.7097C8.07534 11.2967 8.66563 9.97742 9.73431 8.99677C10.7521 8.05808 12.082 7.54836 13.5001 7.54836C13.5679 7.54836 13.6323 7.54836 13.7002 7.5516C16.5805 7.64835 18.9282 10.0258 18.9282 12.8484V16.6484C18.9282 17.5 19.6576 18.1935 20.5532 18.1935C21.113 18.1935 21.5914 18.5774 21.6388 19.0645C21.666 19.3419 21.5744 19.6064 21.3776 19.8128ZM4.71331 11.7419C5.02543 11.7419 5.307 11.5355 5.37487 11.2355C5.70393 9.81936 6.4469 8.52907 7.53253 7.50328C7.79716 7.25165 7.79716 6.84197 7.53253 6.59039C7.26789 6.33877 6.83703 6.33877 6.57245 6.59039C5.30366 7.79029 4.43174 9.30323 4.04841 10.9612C3.967 11.3096 4.1977 11.6548 4.56408 11.729C4.61836 11.7387 4.66584 11.7419 4.71331 11.7419ZM22.2868 11.7419C22.3343 11.7419 22.3852 11.7355 22.4327 11.7258C22.7991 11.6484 23.0298 11.3064 22.9484 10.9581C22.565 9.3 21.6931 7.79035 20.4243 6.58711C20.1596 6.33548 19.7288 6.33548 19.4642 6.58711C19.1996 6.83873 19.1996 7.24842 19.4642 7.49999C20.5464 8.52578 21.2928 9.81613 21.6218 11.2322C21.6931 11.5354 21.9747 11.7419 22.2868 11.7419Z" fill="white"/>
</svg>
