<svg width="36" height="36" viewBox="0 0 36 36" fill="none" xmlns="http://www.w3.org/2000/svg">
<path d="M18.3493 16.3333C17.2286 16.3333 16.133 16.001 15.2011 15.3783C14.2692 14.7557 13.5429 13.8707 13.114 12.8352C12.6851 11.7998 12.5729 10.6604 12.7915 9.56116C13.0102 8.46193 13.5499 7.45223 14.3424 6.65973C15.1349 5.86723 16.1446 5.32754 17.2438 5.10889C18.343 4.89024 19.4824 5.00246 20.5179 5.43135C21.5533 5.86025 22.4383 6.58656 23.061 7.51844C23.6837 8.45032 24.016 9.54591 24.016 10.6667C24.0142 12.169 23.4166 13.6093 22.3543 14.6717C21.292 15.734 19.8517 16.3316 18.3493 16.3333ZM18.3493 7C17.6241 7 16.9152 7.21505 16.3122 7.61795C15.7093 8.02085 15.2393 8.5935 14.9618 9.2635C14.6843 9.93349 14.6116 10.6707 14.7531 11.382C14.8946 12.0933 15.2438 12.7466 15.7566 13.2594C16.2694 13.7722 16.9227 14.1214 17.634 14.2629C18.3453 14.4044 19.0825 14.3317 19.7525 14.0542C20.4225 13.7767 20.9952 13.3067 21.3981 12.7038C21.801 12.1008 22.016 11.3919 22.016 10.6667C22.0153 9.69443 21.6288 8.7622 20.9413 8.07472C20.2538 7.38724 19.3216 7.00071 18.3493 7ZM23.6707 31H13.004C9.77733 31 8 29.2333 8 26.0253C8 22.476 10.008 18.3333 15.6667 18.3333H21C26.6587 18.3333 28.6667 22.476 28.6667 26.0253C28.6707 29.2333 26.8933 31 23.6707 31ZM15.6707 20.3333C14.9093 20.2745 14.1443 20.3815 13.4283 20.6471C12.7123 20.9127 12.0626 21.3305 11.5238 21.8717C10.985 22.4128 10.5701 23.0645 10.3078 23.7816C10.0454 24.4987 9.94172 25.2643 10.004 26.0253C10.004 28.1107 10.9027 29 13.008 29H23.6707C25.776 29 26.6747 28.1107 26.6747 26.0253C26.737 25.2639 26.6333 24.498 26.3707 23.7806C26.108 23.0631 25.6928 22.4113 25.1536 21.87C24.6144 21.3288 23.9641 20.9111 23.2476 20.6458C22.5312 20.3804 21.7657 20.2738 21.004 20.3333H15.6707Z" fill="white"/>
</svg>
