<svg width="28" height="28" viewBox="0 0 28 28" fill="none" xmlns="http://www.w3.org/2000/svg">
<path d="M13.762 12.5C12.9214 12.5 12.0997 12.2507 11.4008 11.7837C10.7019 11.3168 10.1572 10.653 9.83551 9.87641C9.51384 9.09982 9.42967 8.24529 9.59366 7.42087C9.75765 6.59645 10.1624 5.83917 10.7568 5.2448C11.3512 4.65042 12.1084 4.24565 12.9329 4.08166C13.7573 3.91768 14.6118 4.00184 15.3884 4.32351C16.165 4.64519 16.8287 5.18992 17.2957 5.88883C17.7627 6.58774 18.012 7.40943 18.012 8.25C18.0107 9.37677 17.5625 10.457 16.7657 11.2537C15.969 12.0505 14.8888 12.4987 13.762 12.5ZM13.762 5.5C13.2181 5.5 12.6864 5.66129 12.2342 5.96346C11.7819 6.26563 11.4295 6.69513 11.2213 7.19762C11.0132 7.70012 10.9587 8.25305 11.0648 8.7865C11.1709 9.31995 11.4329 9.80995 11.8175 10.1945C12.202 10.5791 12.6921 10.8411 13.2255 10.9472C13.7589 11.0533 14.3119 10.9988 14.8144 10.7907C15.3169 10.5825 15.7464 10.2301 16.0485 9.77782C16.3507 9.32558 16.512 8.7939 16.512 8.25C16.5115 7.52082 16.2216 6.82165 15.706 6.30604C15.1903 5.79043 14.4912 5.50053 13.762 5.5ZM17.753 23.5H9.753C7.333 23.5 6 22.175 6 19.769C6 17.107 7.506 14 11.75 14H15.75C19.994 14 21.5 17.107 21.5 19.769C21.503 22.175 20.17 23.5 17.753 23.5ZM11.753 15.5C11.182 15.4558 10.6082 15.5361 10.0712 15.7353C9.53426 15.9345 9.04692 16.2479 8.64285 16.6537C8.23878 17.0596 7.92761 17.5483 7.73081 18.0862C7.53402 18.624 7.45629 19.1982 7.503 19.769C7.503 21.333 8.177 22 9.756 22H17.753C19.332 22 20.006 21.333 20.006 19.769C20.0528 19.1979 19.975 18.6235 19.778 18.0854C19.581 17.5473 19.2696 17.0584 18.8652 16.6525C18.4608 16.2466 17.9731 15.9333 17.4357 15.7343C16.8984 15.5353 16.3243 15.4554 15.753 15.5H11.753Z" fill="white"/>
</svg>
