<svg width="168.000000" height="28.000000" viewBox="0 0 168 28" fill="none" xmlns="http://www.w3.org/2000/svg" xmlns:xlink="http://www.w3.org/1999/xlink">
	<desc>
			Created with Pixso.
	</desc>
	<defs>
		<clipPath id="clip192_8682">
			<rect id="StarFill" rx="-0.500000" width="27.000000" height="27.000000" transform="translate(140.500000 0.500000) rotate(0.000000)"  fill-opacity="0"/>
		</clipPath>
		<clipPath id="clip192_8685">
			<rect id="StarFill" rx="-0.500000" width="27.000000" height="27.000000" transform="translate(105.500000 0.500000) rotate(0.000000)"  fill-opacity="0"/>
		</clipPath>
		<clipPath id="clip192_8688">
			<rect id="StarFill" rx="-0.500000" width="27.000000" height="27.000000" transform="translate(70.500000 0.500000) rotate(0.000000)"  fill-opacity="0"/>
		</clipPath>
		<clipPath id="clip192_8690">
			<rect id="StarFill" rx="-0.500000" width="6.000000" height="27.000000" transform="translate(70.500000 0.500000) rotate(0.000000)"  fill-opacity="0"/>
		</clipPath>
		<clipPath id="clip192_8694">
			<rect id="StarFill" rx="-0.500000" width="27.000000" height="27.000000" transform="translate(35.500000 0.500000)"  fill-opacity="0"/>
		</clipPath>
		<clipPath id="clip22_305">
			<rect id="StarFill" rx="-0.500000" width="27.000000" height="27.000000" transform="translate(0.500000 0.500000)"  fill-opacity="0"/>
		</clipPath>
	</defs>
	<rect id="StarFill" rx="-0.500000" width="27.000000" height="27.000000" transform="translate(140.500000 0.500000) rotate(0.000000)" fill-opacity="0"/>
	<g clip-path="url(#clip192_8682)">
		<path id="Vector" d="M146.31 27.02C145.64 27.37 144.87 26.76 145.01 25.98L146.46 17.71L140.3 11.83C139.72 11.28 140.02 10.28 140.79 10.17L149.36 8.95L153.18 1.38C153.53 0.7 154.46 0.7 154.81 1.38L158.63 8.95L167.2 10.17C167.97 10.28 168.27 11.28 167.69 11.83L161.53 17.71L162.98 25.98C163.12 26.76 162.35 27.37 161.68 27.02L153.99 23.07L146.31 27.02L146.31 27.02Z" fill-opacity="0" fill-rule="nonzero"/>
		<path id="Vector" d="M146.46 17.71L145.01 25.98C144.89 26.67 145.48 27.23 146.09 27.1C146.16 27.08 146.24 27.06 146.31 27.02L146.31 27.02L146.31 27.02L146.31 27.02L146.53 26.91L153.99 23.07L161.68 27.02C162.35 27.37 163.12 26.76 162.98 25.98L161.53 17.71L167.69 11.83C168.27 11.28 167.97 10.28 167.2 10.17L158.63 8.95L154.81 1.38C154.46 0.7 153.53 0.7 153.18 1.38L149.36 8.95L140.79 10.17C140.02 10.28 139.72 11.28 140.3 11.83L146.46 17.71ZM146.01 26.05L153.99 21.95L161.98 26.05L160.45 17.35L166.96 11.15L157.97 9.87L154 1.99L150.02 9.87L141.03 11.15L147.54 17.35L146.01 26.05Z" fill="#FFA800" fill-opacity="1.000000" fill-rule="evenodd"/>
	</g>
	<rect id="StarFill" rx="-0.500000" width="27.000000" height="27.000000" transform="translate(105.500000 0.500000) rotate(0.000000)" fill-opacity="0"/>
	<g clip-path="url(#clip192_8685)">
		<path id="Vector" d="M111.31 27.02C110.64 27.37 109.87 26.76 110.01 25.98L111.46 17.71L105.3 11.83C104.72 11.28 105.02 10.28 105.79 10.17L114.36 8.95L118.18 1.38C118.53 0.7 119.46 0.7 119.81 1.38L123.63 8.95L132.2 10.17C132.97 10.28 133.27 11.28 132.69 11.83L126.53 17.71L127.98 25.98C128.12 26.76 127.35 27.37 126.68 27.02L118.99 23.07L111.31 27.02L111.31 27.02Z" fill-opacity="0" fill-rule="nonzero"/>
		<path id="Vector" d="M111.46 17.71L110.01 25.98C109.89 26.67 110.48 27.23 111.09 27.1C111.16 27.08 111.24 27.06 111.31 27.02L111.31 27.02L111.31 27.02L111.31 27.02L111.53 26.91L118.99 23.07L126.68 27.02C127.35 27.37 128.12 26.76 127.98 25.98L126.53 17.71L132.69 11.83C133.27 11.28 132.97 10.28 132.2 10.17L123.63 8.95L119.81 1.38C119.46 0.7 118.53 0.7 118.18 1.38L114.36 8.95L105.79 10.17C105.02 10.28 104.72 11.28 105.3 11.83L111.46 17.71ZM111.01 26.05L118.99 21.95L126.98 26.05L125.45 17.35L131.96 11.15L122.97 9.87L119 1.99L115.02 9.87L106.03 11.15L112.54 17.35L111.01 26.05Z" fill="#FFA800" fill-opacity="1.000000" fill-rule="evenodd"/>
	</g>
	<rect id="StarFill" rx="-0.500000" width="27.000000" height="27.000000" transform="translate(70.500000 0.500000) rotate(0.000000)" fill-opacity="0"/>
	<g clip-path="url(#clip192_8688)">
		<path id="Vector" d="M76.31 27.02C75.64 27.37 74.87 26.76 75.01 25.98L76.46 17.71L70.3 11.83C69.72 11.28 70.02 10.28 70.79 10.17L79.36 8.95L83.18 1.38C83.53 0.7 84.46 0.7 84.81 1.38L88.63 8.95L97.2 10.17C97.97 10.28 98.27 11.28 97.69 11.83L91.53 17.71L92.98 25.98C93.12 26.76 92.35 27.37 91.68 27.02L83.99 23.07L76.31 27.02L76.31 27.02Z" fill-opacity="0" fill-rule="nonzero"/>
		<path id="Vector" d="M76.46 17.71L75.01 25.98C74.89 26.67 75.48 27.23 76.09 27.1C76.16 27.08 76.24 27.06 76.31 27.02L76.31 27.02L76.31 27.02L76.31 27.02L76.53 26.91L83.99 23.07L91.68 27.02C92.35 27.37 93.12 26.76 92.98 25.98L91.53 17.71L97.69 11.83C98.27 11.28 97.97 10.28 97.2 10.17L88.63 8.95L84.81 1.38C84.46 0.7 83.53 0.7 83.18 1.38L79.36 8.95L70.79 10.17C70.02 10.28 69.72 11.28 70.3 11.83L76.46 17.71ZM76.01 26.05L83.99 21.95L91.98 26.05L90.45 17.35L96.96 11.15L87.97 9.87L84 1.99L80.02 9.87L71.03 11.15L77.54 17.35L76.01 26.05Z" fill="#FFA800" fill-opacity="1.000000" fill-rule="evenodd"/>
	</g>
	<rect id="StarFill" rx="-0.500000" width="27.000000" height="27.000000" transform="translate(35.500000 0.500000)" fill-opacity="0"/>
	<g clip-path="url(#clip192_8694)">
		<path id="Vector" d="M41.31 27.02C40.64 27.37 39.87 26.76 40.01 25.98L41.46 17.71L35.3 11.83C34.72 11.28 35.02 10.28 35.79 10.17L44.36 8.95L48.18 1.38C48.53 0.7 49.46 0.7 49.81 1.38L53.63 8.95L62.2 10.17C62.97 10.28 63.27 11.28 62.69 11.83L56.53 17.71L57.98 25.98C58.12 26.76 57.35 27.37 56.68 27.02L48.99 23.07L41.31 27.02L41.31 27.02Z" fill-opacity="0" fill-rule="nonzero"/>
		<path id="Vector" d="M41.46 17.71L40.01 25.98C39.89 26.67 40.48 27.23 41.09 27.1C41.16 27.08 41.24 27.06 41.31 27.02L41.31 27.02L41.31 27.02L41.31 27.02L41.53 26.91L48.99 23.07L56.68 27.02C57.35 27.37 58.12 26.76 57.98 25.98L56.53 17.71L62.69 11.83C63.27 11.28 62.97 10.28 62.2 10.17L53.63 8.95L49.81 1.38C49.46 0.7 48.53 0.7 48.18 1.38L44.36 8.95L35.79 10.17C35.02 10.28 34.72 11.28 35.3 11.83L41.46 17.71ZM41.01 26.05L48.99 21.95L56.98 26.05L55.45 17.35L61.96 11.15L52.97 9.87L49 1.99L45.02 9.87L36.03 11.15L42.54 17.35L41.01 26.05Z" fill="#FFA800" fill-opacity="1.000000" fill-rule="evenodd"/>
	</g>
	<rect id="StarFill" rx="-0.500000" width="27.000000" height="27.000000" transform="translate(0.500000 0.500000)" fill-opacity="0"/>
	<g clip-path="url(#clip22_305)">
		<path id="Vector" d="M6.31 27.02C5.64 27.37 4.87 26.76 5.01 25.98L6.46 17.71L0.3 11.83C-0.28 11.28 0.02 10.28 0.79 10.17L9.36 8.95L13.18 1.38C13.53 0.7 14.46 0.7 14.81 1.38L18.63 8.95L27.2 10.17C27.97 10.28 28.27 11.28 27.69 11.83L21.53 17.71L22.98 25.98C23.12 26.76 22.35 27.37 21.68 27.02L13.99 23.07L6.31 27.02L6.31 27.02Z" fill-opacity="0" fill-rule="nonzero"/>
		<path id="Vector" d="M6.46 17.71L5.01 25.98C4.89 26.67 5.48 27.23 6.09 27.1C6.16 27.08 6.24 27.06 6.31 27.02L6.31 27.02L6.31 27.02L6.31 27.02L6.53 26.91L13.99 23.07L21.68 27.02C22.35 27.37 23.12 26.76 22.98 25.98L21.53 17.71L27.69 11.83C28.27 11.28 27.97 10.28 27.2 10.17L18.63 8.95L14.81 1.38C14.46 0.7 13.53 0.7 13.18 1.38L9.36 8.95L0.79 10.17C0.02 10.28 -0.28 11.28 0.3 11.83L6.46 17.71ZM6.01 26.05L13.99 21.95L21.98 26.05L20.45 17.35L26.96 11.15L17.97 9.87L14 1.99L10.02 9.87L1.03 11.15L7.54 17.35L6.01 26.05Z" fill="#FFA800" fill-opacity="1.000000" fill-rule="evenodd"/>
	</g>
</svg>
