<svg width="215.000000" height="36.000000" viewBox="0 0 215 36" fill="none" xmlns="http://www.w3.org/2000/svg" xmlns:xlink="http://www.w3.org/1999/xlink">
	<desc>
			Created with Pixso.
	</desc>
	<defs>
		<clipPath id="clip192_8311">
			<rect id="StarFill" rx="-0.500000" width="35.000000" height="35.000000" transform="translate(0.500000 0.500000) rotate(0.000000)" fill="white" fill-opacity="0"/>
		</clipPath>
		<clipPath id="clip192_8313">
			<rect id="StarFill" rx="-0.500000" width="35.000000" height="35.000000" transform="translate(44.500000 0.500000) rotate(0.000000)" fill="white" fill-opacity="0"/>
		</clipPath>
		<clipPath id="clip192_8315">
			<rect id="StarFill" rx="-0.500000" width="35.000000" height="35.000000" transform="translate(89.500000 0.500000) rotate(0.000000)" fill="white" fill-opacity="0"/>
		</clipPath>
		<clipPath id="clip192_8317">
			<rect id="StarFill" rx="-0.500000" width="35.000000" height="35.000000" transform="translate(134.500000 0.500000) rotate(0.000000)" fill="white" fill-opacity="0"/>
		</clipPath>
		<clipPath id="clip192_8319">
			<rect id="StarFill" rx="-0.500000" width="35.000000" height="35.000000" transform="translate(179.500000 0.500000) rotate(0.000000)" fill="white" fill-opacity="0"/>
		</clipPath>
		<clipPath id="clip192_8322">
			<rect id="StarFill" rx="-0.500000" width="35.000000" height="35.000000" transform="translate(179.500000 0.500000) rotate(0.000000)" fill="white" fill-opacity="0"/>
		</clipPath>
		<clipPath id="clip192_8321">
			<rect id="Frame 2" rx="-0.500000" width="17.000000" height="35.000000" transform="translate(179.500000 0.500000)" fill="white" fill-opacity="0"/>
		</clipPath>
	</defs>
	<rect id="StarFill" rx="-0.500000" width="35.000000" height="35.000000" transform="translate(0.500000 0.500000) rotate(0.000000)" fill="#FFFFFF" fill-opacity="0"/>
	<g clip-path="url(#clip192_8311)">
		<path id="Vector" d="M8.12 34.74C7.25 35.19 6.26 34.41 6.44 33.41L8.31 22.77L0.38 15.22C-0.36 14.51 0.03 13.22 1.02 13.08L12.04 11.51L16.95 1.78C17.4 0.9 18.59 0.9 19.04 1.78L23.95 11.51L34.97 13.08C35.97 13.22 36.35 14.51 35.61 15.22L27.68 22.77L29.55 33.41C29.73 34.41 28.74 35.19 27.87 34.74L17.99 29.67L8.12 34.74L8.12 34.74Z" fill="#FFA800" fill-opacity="1.000000" fill-rule="nonzero"/>
	</g>
	<rect id="StarFill" rx="-0.500000" width="35.000000" height="35.000000" transform="translate(44.500000 0.500000) rotate(0.000000)" fill="#FFFFFF" fill-opacity="0"/>
	<g clip-path="url(#clip192_8313)">
		<path id="Vector" d="M52.12 34.74C51.25 35.19 50.26 34.41 50.44 33.41L52.31 22.77L44.38 15.22C43.64 14.51 44.03 13.22 45.02 13.08L56.04 11.51L60.95 1.78C61.4 0.9 62.59 0.9 63.04 1.78L67.95 11.51L78.97 13.08C79.97 13.22 80.35 14.51 79.61 15.22L71.68 22.77L73.55 33.41C73.73 34.41 72.74 35.19 71.87 34.74L61.99 29.67L52.12 34.74L52.12 34.74Z" fill="#FFA800" fill-opacity="1.000000" fill-rule="nonzero"/>
	</g>
	<rect id="StarFill" rx="-0.500000" width="35.000000" height="35.000000" transform="translate(89.500000 0.500000) rotate(0.000000)" fill="#FFFFFF" fill-opacity="0"/>
	<g clip-path="url(#clip192_8315)">
		<path id="Vector" d="M97.12 34.74C96.25 35.19 95.26 34.41 95.44 33.41L97.31 22.77L89.38 15.22C88.64 14.51 89.03 13.22 90.02 13.08L101.04 11.51L105.95 1.78C106.4 0.9 107.6 0.9 108.04 1.78L112.95 11.51L123.97 13.08C124.97 13.22 125.35 14.51 124.61 15.22L116.68 22.77L118.55 33.41C118.73 34.41 117.74 35.19 116.87 34.74L106.99 29.67L97.12 34.74L97.12 34.74Z" fill="#FFA800" fill-opacity="1.000000" fill-rule="nonzero"/>
	</g>
	<rect id="StarFill" rx="-0.500000" width="35.000000" height="35.000000" transform="translate(134.500000 0.500000) rotate(0.000000)" fill="#FFFFFF" fill-opacity="0"/>
	<g clip-path="url(#clip192_8317)">
		<path id="Vector" d="M142.12 34.74C141.25 35.19 140.27 34.41 140.44 33.41L142.31 22.77L134.38 15.22C133.64 14.51 134.03 13.22 135.02 13.08L146.04 11.51L150.95 1.78C151.39 0.9 152.6 0.9 153.04 1.78L157.95 11.51L168.97 13.08C169.97 13.22 170.35 14.51 169.61 15.22L161.68 22.77L163.55 33.41C163.73 34.41 162.74 35.19 161.87 34.74L151.99 29.67L142.12 34.74L142.12 34.74Z" fill="#FFA800" fill-opacity="1.000000" fill-rule="nonzero"/>
	</g>
	<rect id="StarFill" rx="-0.500000" width="35.000000" height="35.000000" transform="translate(179.500000 0.500000) rotate(0.000000)" fill="#FFFFFF" fill-opacity="0"/>
	<g clip-path="url(#clip192_8319)">
		<path id="Vector" d="M187.12 34.74C186.25 35.19 185.27 34.41 185.44 33.41L187.31 22.77L179.38 15.22C178.64 14.51 179.03 13.22 180.02 13.08L191.04 11.51L195.95 1.78C196.4 0.9 197.6 0.9 198.04 1.78L202.95 11.51L213.97 13.08C214.97 13.22 215.35 14.51 214.61 15.22L206.68 22.77L208.55 33.41C208.73 34.41 207.74 35.19 206.87 34.74L196.99 29.67L187.12 34.74L187.12 34.74Z" fill="#FFFFFF" fill-opacity="1.000000" fill-rule="nonzero"/>
		<path id="Vector" d="M187.31 22.77L185.44 33.41C185.28 34.32 186.09 35.05 186.9 34.83C186.97 34.81 187.04 34.78 187.12 34.74L187.12 34.74L187.12 34.74L187.12 34.74L187.33 34.63L196.99 29.67L206.87 34.74C207.74 35.19 208.73 34.41 208.55 33.41L206.68 22.77L214.61 15.22C215.35 14.51 214.97 13.22 213.97 13.08L202.95 11.51L198.04 1.78C197.6 0.9 196.4 0.9 195.95 1.78L191.04 11.51L180.02 13.08C179.03 13.22 178.64 14.51 179.38 15.22L187.31 22.77ZM186.66 33.85L186.66 33.85L196.99 28.54L207.33 33.85Q207.36 33.87 207.4 33.87Q207.44 33.87 207.48 33.83Q207.52 33.8 207.55 33.76Q207.58 33.68 207.57 33.58L205.6 22.41L213.92 14.49Q213.96 14.45 213.98 14.39Q214.01 14.32 213.98 14.22Q213.95 14.12 213.89 14.09Q213.86 14.07 213.83 14.07L202.29 12.43L197.15 2.23Q197.11 2.15 197.05 2.13Q197.02 2.12 197 2.12Q196.97 2.12 196.94 2.13Q196.88 2.15 196.85 2.23L191.7 12.43L180.16 14.07Q180.13 14.07 180.1 14.09Q180.04 14.12 180.01 14.22Q179.98 14.32 180.01 14.4Q180.03 14.45 180.07 14.49L188.39 22.41L186.43 33.58L186.43 33.58Q186.41 33.68 186.44 33.75Q186.47 33.8 186.51 33.83Q186.55 33.87 186.6 33.87Q186.63 33.87 186.66 33.85Z" fill="#FFA800" fill-opacity="1.000000" fill-rule="evenodd"/>
	</g>
	<g clip-path="url(#clip192_8321)">
		<rect id="StarFill" rx="-0.500000" width="35.000000" height="35.000000" transform="translate(179.500000 0.500000) rotate(0.000000)" fill="#FFFFFF" fill-opacity="1.000000"/>
		<g clip-path="url(#clip192_8322)">
			<path id="Vector" d="M187.12 34.74C186.25 35.19 185.27 34.41 185.44 33.41L187.31 22.77L179.38 15.22C178.64 14.51 179.03 13.22 180.02 13.08L191.04 11.51L195.95 1.78C196.4 0.9 197.6 0.9 198.04 1.78L202.95 11.51L213.97 13.08C214.97 13.22 215.35 14.51 214.61 15.22L206.68 22.77L208.55 33.41C208.73 34.41 207.74 35.19 206.87 34.74L196.99 29.67L187.12 34.74L187.12 34.74Z" fill="#FFA800" fill-opacity="1.000000" fill-rule="nonzero"/>
			<path id="Vector" d="M187.31 22.77L185.44 33.41C185.28 34.32 186.09 35.05 186.9 34.83C186.97 34.81 187.04 34.78 187.12 34.74L187.12 34.74L187.12 34.74L187.12 34.74L187.33 34.63L196.99 29.67L206.87 34.74C207.74 35.19 208.73 34.41 208.55 33.41L206.68 22.77L214.61 15.22C215.35 14.51 214.97 13.22 213.97 13.08L202.95 11.51L198.04 1.78C197.6 0.9 196.4 0.9 195.95 1.78L191.04 11.51L180.02 13.08C179.03 13.22 178.64 14.51 179.38 15.22L187.31 22.77ZM186.66 33.85L186.66 33.85L196.99 28.54L207.33 33.85Q207.36 33.87 207.4 33.87Q207.44 33.87 207.48 33.83Q207.52 33.8 207.55 33.76Q207.58 33.68 207.57 33.58L205.6 22.41L213.92 14.49Q213.96 14.45 213.98 14.39Q214.01 14.32 213.98 14.22Q213.95 14.12 213.89 14.09Q213.86 14.07 213.83 14.07L202.29 12.43L197.15 2.23Q197.11 2.15 197.05 2.13Q197.02 2.12 197 2.12Q196.97 2.12 196.94 2.13Q196.88 2.15 196.85 2.23L191.7 12.43L180.16 14.07Q180.13 14.07 180.1 14.09Q180.04 14.12 180.01 14.22Q179.98 14.32 180.01 14.4Q180.03 14.45 180.07 14.49L188.39 22.41L186.43 33.58L186.43 33.58Q186.41 33.68 186.44 33.75Q186.47 33.8 186.51 33.83Q186.55 33.87 186.6 33.87Q186.63 33.87 186.66 33.85Z" fill="#FFA800" fill-opacity="1.000000" fill-rule="evenodd"/>
		</g>
	</g>
</svg>
