<svg width="15.000000" height="16.666626" viewBox="0 0 15 16.6666" fill="none" xmlns="http://www.w3.org/2000/svg" xmlns:xlink="http://www.w3.org/1999/xlink">
	<desc>
			Created with Pixso.
	</desc>
	<defs/>
	<path id="Vector" d="M13.33 15L1.66 15L1.66 5.83L13.33 5.83L13.33 15ZM10.83 0L10.83 1.66L4.16 1.66L4.16 0L2.5 0L2.5 1.66L1.66 1.66C0.74 1.66 0 2.4 0 3.33L0 15C0 15.44 0.17 15.86 0.48 16.17C0.8 16.49 1.22 16.66 1.66 16.66L13.33 16.66C13.77 16.66 14.19 16.49 14.51 16.17C14.82 15.86 15 15.44 15 15L15 3.33C15 2.4 14.25 1.66 13.33 1.66L12.5 1.66L12.5 0L10.83 0ZM11.66 9.16L7.5 9.16L7.5 13.33L11.66 13.33L11.66 9.16Z" fill="#A7B3B9" fill-opacity="1.000000" fill-rule="nonzero"/>
</svg>
