<svg width="18.927734" height="20.870117" viewBox="0 0 18.9277 20.8701" fill="none" xmlns="http://www.w3.org/2000/svg" xmlns:xlink="http://www.w3.org/1999/xlink">
	<desc>
			Created with Pixso.
	</desc>
	<defs/>
	<path id="Combined-Shape" d="M13.38 0C13.79 0 14.11 0.32 14.11 0.72L14.11 1.55C15.53 1.64 16.71 2.13 17.54 2.96C18.45 3.88 18.93 5.19 18.92 6.77L18.92 15.62C18.92 18.86 16.87 20.87 13.57 20.87L5.35 20.87C2.05 20.87 0 18.83 0 15.55L0 6.76C0 3.71 1.83 1.75 4.81 1.55L4.82 0.72C4.82 0.32 5.14 0 5.54 0C5.94 0 6.27 0.32 6.27 0.72L6.27 1.53L12.66 1.53L12.66 0.72C12.66 0.32 12.98 0 13.38 0ZM17.47 8.64L1.45 8.64L1.45 15.55C1.45 18.04 2.84 19.41 5.35 19.41L13.57 19.41C16.08 19.41 17.47 18.06 17.47 15.62L17.47 8.64ZM13.78 14.75C14.18 14.75 14.51 15.07 14.51 15.47C14.51 15.88 14.18 16.2 13.78 16.2C13.38 16.2 13.05 15.88 13.05 15.47C13.05 15.07 13.37 14.75 13.77 14.75L13.78 14.75ZM9.47 14.75C9.87 14.75 10.2 15.07 10.2 15.47C10.2 15.88 9.87 16.2 9.47 16.2C9.07 16.2 8.74 15.88 8.74 15.47C8.74 15.07 9.06 14.75 9.46 14.75L9.47 14.75ZM5.16 14.75C5.56 14.75 5.88 15.07 5.88 15.47C5.88 15.88 5.56 16.2 5.16 16.2C4.75 16.2 4.42 15.88 4.42 15.47C4.42 15.07 4.75 14.75 5.15 14.75L5.16 14.75ZM13.78 10.97C14.18 10.97 14.51 11.3 14.51 11.7C14.51 12.1 14.18 12.43 13.78 12.43C13.38 12.43 13.05 12.1 13.05 11.7C13.05 11.3 13.37 10.97 13.77 10.97L13.78 10.97ZM9.47 10.97C9.87 10.97 10.2 11.3 10.2 11.7C10.2 12.1 9.87 12.43 9.47 12.43C9.07 12.43 8.74 12.1 8.74 11.7C8.74 11.3 9.06 10.97 9.46 10.97L9.47 10.97ZM5.16 10.97C5.56 10.97 5.88 11.3 5.88 11.7C5.88 12.1 5.56 12.43 5.16 12.43C4.75 12.43 4.42 12.1 4.42 11.7C4.42 11.3 4.75 10.97 5.15 10.97L5.16 10.97ZM12.66 2.98L6.27 2.98L6.27 3.92C6.27 4.32 5.94 4.65 5.54 4.65C5.14 4.65 4.82 4.32 4.82 3.92L4.81 3.01C2.64 3.19 1.45 4.51 1.45 6.76L1.45 7.18L17.47 7.18L17.47 6.76C17.47 5.56 17.15 4.63 16.51 3.99C15.95 3.43 15.13 3.09 14.11 3.01L14.11 3.92C14.11 4.32 13.79 4.65 13.38 4.65C12.98 4.65 12.66 4.32 12.66 3.92L12.66 2.98Z" fill="#A3A8BA" fill-opacity="1.000000" fill-rule="evenodd"/>
</svg>
