<svg width="28" height="28" viewBox="0 0 28 28" fill="none" xmlns="http://www.w3.org/2000/svg">
<g clip-path="url(#clip0_2030_917)">
<path d="M6.08832 26.5806L6.08851 26.5814C5.82672 26.7136 5.43174 26.4953 5.50557 26.076L5.50562 26.0757L6.95812 17.7982L7.0044 17.5344L6.81051 17.3497L0.645605 11.4771C0.645553 11.477 0.6455 11.477 0.645448 11.4769C0.348148 11.1929 0.540078 10.7171 0.865254 10.6714L0.865986 10.6713L9.43749 9.4533L9.6959 9.41658L9.81351 9.18357L13.6354 1.61146C13.7953 1.29504 14.2053 1.29504 14.3651 1.61146L18.187 9.18357L18.3046 9.41658L18.5631 9.4533L27.1346 10.6713L27.1353 10.6714C27.4604 10.7171 27.6522 11.1925 27.3537 11.4765L27.3535 11.4768L21.19 17.3498L20.9961 17.5345L21.0424 17.7982L22.4949 26.0757L22.495 26.076C22.569 26.4963 22.172 26.7146 21.9103 26.5805C21.9102 26.5804 21.9102 26.5804 21.9101 26.5804L14.2261 22.6325L13.9976 22.5151L13.7691 22.6326L6.08832 26.5806Z" fill="white" stroke="#FFA800"/>
</g>
<g clip-path="url(#clip1_2030_917)">
<path d="M6.31864 27.0252C5.64314 27.3717 4.87664 26.7644 5.01314 25.9892L6.46564 17.7117L0.300394 11.8387C-0.275357 11.2892 0.0238935 10.2847 0.795644 10.1762L9.36714 8.95815L13.1891 1.3859C13.5339 0.703398 14.4666 0.703398 14.8114 1.3859L18.6334 8.95815L27.2049 10.1762C27.9766 10.2847 28.2759 11.2892 27.6984 11.8387L21.5349 17.7117L22.9874 25.9892C23.1239 26.7644 22.3574 27.3717 21.6819 27.0252L13.9976 23.0772L6.31689 27.0252H6.31864Z" fill="#FFA800"/>
</g>
<defs>
<clipPath id="clip0_2030_917">
<rect width="28" height="28" fill="white"/>
</clipPath>
<clipPath id="clip1_2030_917">
<rect width="18" height="28" fill="white"/>
</clipPath>
</defs>
</svg>
