<svg width="142" height="68" viewBox="0 0 142 68" fill="none" xmlns="http://www.w3.org/2000/svg">
<path d="M69.7674 23.7675C69.7674 23.3275 69.6808 22.9342 69.5074 22.5875C69.3341 22.2409 69.0274 21.9475 68.5874 21.7075C68.1608 21.4675 67.5808 21.2875 66.8474 21.1675C66.1274 21.0475 65.2141 20.9875 64.1074 20.9875C64.2541 19.7075 64.3674 18.4942 64.4474 17.3475C64.5274 16.1875 64.5941 15.0275 64.6474 13.8675H71.7274V15.9075H66.7074C66.6941 16.1342 66.6741 16.3942 66.6474 16.6875C66.6341 16.9675 66.6141 17.2542 66.5874 17.5475C66.5741 17.8409 66.5541 18.1209 66.5274 18.3875C66.5008 18.6542 66.4741 18.8809 66.4474 19.0675C68.4208 19.1742 69.8741 19.6275 70.8074 20.4275C71.7541 21.2142 72.2274 22.2942 72.2274 23.6675C72.2274 24.2942 72.1208 24.8742 71.9074 25.4075C71.6941 25.9409 71.3674 26.4009 70.9274 26.7875C70.4874 27.1742 69.9341 27.4809 69.2674 27.7075C68.6008 27.9209 67.8208 28.0275 66.9274 28.0275C66.5674 28.0275 66.2008 28.0009 65.8274 27.9475C65.4541 27.8942 65.0941 27.8275 64.7474 27.7475C64.4141 27.6809 64.1141 27.6075 63.8474 27.5275C63.5808 27.4475 63.3808 27.3742 63.2474 27.3075L63.7074 25.2675C63.9874 25.4009 64.3874 25.5475 64.9074 25.7075C65.4408 25.8542 66.0874 25.9275 66.8474 25.9275C67.3674 25.9275 67.8141 25.8742 68.1874 25.7675C68.5608 25.6475 68.8608 25.4875 69.0874 25.2875C69.3274 25.0875 69.5008 24.8609 69.6074 24.6075C69.7141 24.3409 69.7674 24.0609 69.7674 23.7675ZM82.5626 19.4475C82.9492 19.4475 83.3359 19.4209 83.7226 19.3675C84.1092 19.3009 84.4559 19.1942 84.7626 19.0475C85.0692 18.8875 85.3159 18.6809 85.5026 18.4275C85.6892 18.1609 85.7826 17.8275 85.7826 17.4275C85.7826 16.9075 85.5626 16.4942 85.1226 16.1875C84.6959 15.8809 84.1026 15.7275 83.3426 15.7275C82.6092 15.7275 81.9559 15.8142 81.3826 15.9875C80.8226 16.1475 80.3492 16.3409 79.9626 16.5675L79.1426 14.5475C79.5692 14.2809 80.1492 14.0542 80.8826 13.8675C81.6292 13.6675 82.4559 13.5675 83.3626 13.5675C84.0826 13.5675 84.7492 13.6475 85.3626 13.8075C85.9759 13.9542 86.5026 14.1875 86.9426 14.5075C87.3826 14.8275 87.7292 15.2275 87.9826 15.7075C88.2359 16.1875 88.3626 16.7475 88.3626 17.3875C88.3626 17.9742 88.1959 18.5342 87.8626 19.0675C87.5292 19.5875 87.0226 19.9942 86.3426 20.2875C86.7026 20.4209 87.0426 20.5875 87.3626 20.7875C87.6826 20.9875 87.9626 21.2342 88.2026 21.5275C88.4426 21.8209 88.6292 22.1609 88.7626 22.5475C88.9092 22.9209 88.9826 23.3475 88.9826 23.8275C88.9826 24.5742 88.8492 25.2142 88.5826 25.7475C88.3159 26.2675 87.9359 26.7009 87.4426 27.0475C86.9492 27.3809 86.3426 27.6275 85.6226 27.7875C84.9159 27.9475 84.1226 28.0275 83.2426 28.0275C82.7492 28.0275 82.2759 27.9942 81.8226 27.9275C81.3692 27.8609 80.9426 27.7742 80.5426 27.6675C80.1426 27.5609 79.7826 27.4475 79.4626 27.3275C79.1426 27.1942 78.8759 27.0742 78.6626 26.9675L79.4026 24.9475C79.5759 25.0275 79.7892 25.1209 80.0426 25.2275C80.2959 25.3209 80.5826 25.4142 80.9026 25.5075C81.2226 25.6009 81.5692 25.6809 81.9426 25.7475C82.3159 25.8142 82.6959 25.8475 83.0826 25.8475C84.1226 25.8475 84.9226 25.6942 85.4826 25.3875C86.0559 25.0675 86.3426 24.5209 86.3426 23.7475C86.3426 23.2942 86.2426 22.9209 86.0426 22.6275C85.8559 22.3342 85.5892 22.1075 85.2426 21.9475C84.9092 21.7875 84.5092 21.6809 84.0426 21.6275C83.5759 21.5609 83.0759 21.5275 82.5426 21.5275H80.9826V19.4475H82.5626ZM95.7795 27.8875C95.0461 27.8875 94.3061 27.8609 93.5595 27.8075C92.8128 27.7675 92.1595 27.6742 91.5995 27.5275V14.0675C91.8928 14.0142 92.2061 13.9675 92.5395 13.9275C92.8728 13.8742 93.2128 13.8342 93.5595 13.8075C93.9061 13.7809 94.2461 13.7609 94.5795 13.7475C94.9261 13.7342 95.2528 13.7275 95.5595 13.7275C96.3995 13.7275 97.1795 13.7942 97.8995 13.9275C98.6195 14.0475 99.2395 14.2542 99.7595 14.5475C100.293 14.8409 100.706 15.2275 100.999 15.7075C101.293 16.1875 101.439 16.7809 101.439 17.4875C101.439 18.1409 101.279 18.7009 100.959 19.1675C100.653 19.6342 100.219 20.0075 99.6595 20.2875C100.499 20.5675 101.119 20.9809 101.519 21.5275C101.919 22.0742 102.119 22.7675 102.119 23.6075C102.119 25.0342 101.599 26.1075 100.559 26.8275C99.5195 27.5342 97.9261 27.8875 95.7795 27.8875ZM94.0795 21.4875V25.7075C94.3595 25.7342 94.6595 25.7542 94.9795 25.7675C95.2995 25.7809 95.5928 25.7875 95.8595 25.7875C96.3795 25.7875 96.8595 25.7542 97.2995 25.6875C97.7528 25.6209 98.1395 25.5075 98.4595 25.3475C98.7928 25.1742 99.0528 24.9475 99.2395 24.6675C99.4395 24.3875 99.5395 24.0275 99.5395 23.5875C99.5395 22.8009 99.2528 22.2542 98.6795 21.9475C98.1061 21.6409 97.3128 21.4875 96.2995 21.4875H94.0795ZM94.0795 19.5075H95.8595C96.8195 19.5075 97.5728 19.3742 98.1195 19.1075C98.6661 18.8275 98.9395 18.3342 98.9395 17.6275C98.9395 16.9609 98.6528 16.4875 98.0795 16.2075C97.5195 15.9275 96.7861 15.7875 95.8795 15.7875C95.4928 15.7875 95.1461 15.7942 94.8395 15.8075C94.5461 15.8209 94.2928 15.8409 94.0795 15.8675V19.5075ZM104.744 27.7275V13.8675H113.644V16.0075H107.264V19.4275H112.944V21.5275H107.264V25.5875H114.124V27.7275H104.744ZM119.223 19.4475C119.609 19.4475 119.996 19.4209 120.383 19.3675C120.769 19.3009 121.116 19.1942 121.423 19.0475C121.729 18.8875 121.976 18.6809 122.163 18.4275C122.349 18.1609 122.443 17.8275 122.443 17.4275C122.443 16.9075 122.223 16.4942 121.783 16.1875C121.356 15.8809 120.763 15.7275 120.003 15.7275C119.269 15.7275 118.616 15.8142 118.043 15.9875C117.483 16.1475 117.009 16.3409 116.623 16.5675L115.803 14.5475C116.229 14.2809 116.809 14.0542 117.543 13.8675C118.289 13.6675 119.116 13.5675 120.023 13.5675C120.743 13.5675 121.409 13.6475 122.023 13.8075C122.636 13.9542 123.163 14.1875 123.603 14.5075C124.043 14.8275 124.389 15.2275 124.643 15.7075C124.896 16.1875 125.023 16.7475 125.023 17.3875C125.023 17.9742 124.856 18.5342 124.523 19.0675C124.189 19.5875 123.683 19.9942 123.003 20.2875C123.363 20.4209 123.703 20.5875 124.023 20.7875C124.343 20.9875 124.623 21.2342 124.863 21.5275C125.103 21.8209 125.289 22.1609 125.423 22.5475C125.569 22.9209 125.643 23.3475 125.643 23.8275C125.643 24.5742 125.509 25.2142 125.243 25.7475C124.976 26.2675 124.596 26.7009 124.103 27.0475C123.609 27.3809 123.003 27.6275 122.283 27.7875C121.576 27.9475 120.783 28.0275 119.903 28.0275C119.409 28.0275 118.936 27.9942 118.483 27.9275C118.029 27.8609 117.603 27.7742 117.203 27.6675C116.803 27.5609 116.443 27.4475 116.123 27.3275C115.803 27.1942 115.536 27.0742 115.323 26.9675L116.063 24.9475C116.236 25.0275 116.449 25.1209 116.703 25.2275C116.956 25.3209 117.243 25.4142 117.563 25.5075C117.883 25.6009 118.229 25.6809 118.603 25.7475C118.976 25.8142 119.356 25.8475 119.743 25.8475C120.783 25.8475 121.583 25.6942 122.143 25.3875C122.716 25.0675 123.003 24.5209 123.003 23.7475C123.003 23.2942 122.903 22.9209 122.703 22.6275C122.516 22.3342 122.249 22.1075 121.903 21.9475C121.569 21.7875 121.169 21.6809 120.703 21.6275C120.236 21.5609 119.736 21.5275 119.203 21.5275H117.643V19.4475H119.223ZM126.86 25.5875H128.58C129.18 24.7609 129.64 23.8942 129.96 22.9875C130.293 22.0675 130.533 21.1209 130.68 20.1475C130.84 19.1609 130.933 18.1475 130.96 17.1075C130.986 16.0542 131 14.9742 131 13.8675H139.5V25.5875H141.56V31.4275H139.14V27.7275H129.28V31.4275H126.86V25.5875ZM133.42 16.0275C133.38 16.8275 133.333 17.6475 133.28 18.4875C133.226 19.3275 133.126 20.1609 132.98 20.9875C132.846 21.8009 132.653 22.6009 132.4 23.3875C132.146 24.1609 131.8 24.8942 131.36 25.5875H137.02V16.0275H133.42Z" fill="#253237"/>
<g clip-path="url(#clip0_342_21512)">
<path d="M96.5153 53.0313C96.0328 53.2788 95.4853 52.8451 95.5828 52.2913L96.6203 46.3788L92.2165 42.1838C91.8053 41.7913 92.019 41.0738 92.5703 40.9963L98.6928 40.1263L101.423 34.7176C101.669 34.2301 102.335 34.2301 102.582 34.7176L105.312 40.1263L111.434 40.9963C111.985 41.0738 112.199 41.7913 111.787 42.1838L107.384 46.3788L108.422 52.2913C108.519 52.8451 107.972 53.2788 107.489 53.0313L102 50.2113L96.514 53.0313H96.5153Z" fill="#FFA800"/>
</g>
<g clip-path="url(#clip1_342_21512)">
<path d="M77.9346 50.2402C77.621 50.4134 77.2651 50.1098 77.3285 49.7222L78.0029 45.5834L75.1404 42.6469C74.8731 42.3722 75.0121 41.8699 75.3704 41.8157L79.35 41.2067L81.1245 37.4205C81.2846 37.0793 81.7176 37.0793 81.8777 37.4205L83.6522 41.2067L87.6318 41.8157C87.9901 41.8699 88.1291 42.3722 87.8609 42.6469L84.9993 45.5834L85.6737 49.7222C85.7371 50.1098 85.3812 50.4134 85.0676 50.2402L81.4999 48.2662L77.9338 50.2402H77.9346Z" fill="#FFA800"/>
</g>
<g clip-path="url(#clip2_342_21512)">
<path d="M64.032 48.4142C63.8148 48.5256 63.5685 48.3304 63.6123 48.0812L64.0792 45.4206L62.0975 43.5328C61.9125 43.3562 62.0087 43.0333 62.2567 42.9985L65.0118 42.607L66.2403 40.173C66.3512 39.9536 66.651 39.9536 66.7618 40.173L67.9903 42.607L70.7454 42.9985C70.9935 43.0333 71.0897 43.3562 70.904 43.5328L68.9229 45.4206L69.3898 48.0812C69.4337 48.3304 69.1873 48.5256 68.9702 48.4142L66.5002 47.1452L64.0314 48.4142H64.032Z" fill="#FFA800"/>
</g>
<g clip-path="url(#clip3_342_21512)">
<path d="M118.935 50.2402C118.621 50.4134 118.265 50.1098 118.329 49.7222L119.003 45.5834L116.14 42.6469C115.873 42.3722 116.012 41.8699 116.37 41.8157L120.35 41.2067L122.125 37.4205C122.285 37.0793 122.718 37.0793 122.878 37.4205L124.652 41.2067L128.632 41.8157C128.99 41.8699 129.129 42.3722 128.861 42.6469L125.999 45.5834L126.674 49.7222C126.737 50.1098 126.381 50.4134 126.068 50.2402L122.5 48.2662L118.934 50.2402H118.935Z" fill="#FFA800"/>
</g>
<g clip-path="url(#clip4_342_21512)">
<path d="M135.032 48.4142C134.815 48.5256 134.568 48.3304 134.612 48.0812L135.079 45.4206L133.098 43.5328C132.912 43.3562 133.009 43.0333 133.257 42.9985L136.012 42.607L137.24 40.173C137.351 39.9536 137.651 39.9536 137.762 40.173L138.99 42.607L141.745 42.9985C141.993 43.0333 142.09 43.3562 141.904 43.5328L139.923 45.4206L140.39 48.0812C140.434 48.3304 140.187 48.5256 139.97 48.4142L137.5 47.1452L135.031 48.4142H135.032Z" fill="#FFA800"/>
</g>
<path d="M26 0H0V35.8168C0 56.2998 26 68 26 68C26 68 52 56.2895 52 35.8168V0H26Z" fill="white"/>
<path d="M3.24316 17.109H48.7654V2.57465H3.24316V17.109ZM9.2814 12.3594C8.82588 12.6817 8.2688 12.8309 7.71167 12.7798H5.51404V8.04579C5.50785 7.9635 5.51806 7.88079 5.54409 7.80242C5.57013 7.72404 5.61148 7.65151 5.66578 7.589C5.80084 7.47982 5.97371 7.42763 6.14717 7.44365H9.50116C9.53767 7.6128 9.53886 7.78758 9.50466 7.9572C9.47047 8.12683 9.40161 8.2877 9.30233 8.42991H6.61809V9.40579L7.03145 9.37465C7.17098 9.37465 7.33319 9.37465 7.51807 9.37465C7.82901 9.37268 8.13933 9.40225 8.44421 9.46289C8.69853 9.50902 8.94068 9.60617 9.15582 9.74839C9.35137 9.87821 9.5085 10.0574 9.61104 10.2675C9.72231 10.5118 9.77599 10.7781 9.76802 11.0461C9.78978 11.2902 9.7575 11.5361 9.67344 11.7665C9.58939 11.9969 9.45559 12.2064 9.2814 12.3801M14.1371 9.62381C14.1371 9.62381 14.3045 9.69129 14.3045 10.1429C14.3045 10.5945 14.1476 10.6204 14.1476 10.6204H11.8348V11.8092H14.2627C14.4353 12.1077 14.5034 12.4545 14.4563 12.7954H10.7046V8.04579C10.6946 7.96204 10.7044 7.87713 10.7331 7.79774C10.7618 7.71835 10.8086 7.64665 10.87 7.58829C10.9314 7.52992 11.0056 7.48648 11.0867 7.46138C11.1679 7.43629 11.2538 7.43022 11.3378 7.44365H14.4772C14.5317 7.61087 14.5426 7.78907 14.5087 7.96157C14.4748 8.13407 14.3974 8.29522 14.2836 8.42991H11.8348V9.60304L14.1371 9.62381ZM19.9294 12.8006H18.8044V8.42991H18.4905C18.294 8.4259 18.0981 8.45217 17.9097 8.50778C17.7534 8.55928 17.6105 8.64435 17.4911 8.75694C17.3745 8.87985 17.2806 9.02218 17.2138 9.17739C17.0766 9.56522 16.9613 9.96034 16.8684 10.3609C16.8266 10.5737 16.2929 12.7798 16.2929 12.7798H15.1679C15.283 12.323 15.801 10.2882 15.8376 10.1117C15.9361 9.60412 16.0833 9.107 16.2772 8.62717C16.4031 8.36755 16.5812 8.13616 16.8004 7.94717C17.0138 7.76818 17.2637 7.63714 17.533 7.56304C17.8417 7.48078 18.1603 7.44062 18.48 7.44365H19.3277C19.4585 7.43631 19.5896 7.45213 19.7149 7.49037C19.7971 7.52339 19.868 7.57927 19.919 7.65129L19.9294 12.8006ZM25.2874 12.8006C25.2403 12.6864 25.188 12.5359 25.1095 12.3438L24.8427 11.6638H22.3049C22.2003 11.9285 22.1166 12.1829 22.0433 12.3438C21.9701 12.5047 21.9125 12.6812 21.8602 12.8006H20.7195C20.8346 12.4943 20.9602 12.1777 21.091 11.8507C21.2218 11.5237 21.3526 11.2018 21.4887 10.8852L21.8759 9.95602C22.0015 9.65495 22.1218 9.37984 22.2317 9.13068C22.3416 8.88152 22.4358 8.65831 22.5195 8.46625C22.6032 8.27419 22.6712 8.12884 22.7235 8.02503C22.7981 7.81929 22.9307 7.63913 23.1055 7.50594C23.2625 7.41033 23.4447 7.36334 23.6288 7.37098C23.8792 7.3573 24.1251 7.44111 24.3142 7.60457C24.4084 7.76549 24.5183 7.9835 24.6491 8.25343C24.7799 8.52335 24.9107 8.82442 25.052 9.15663C25.1933 9.48884 25.3398 9.82625 25.4863 10.1948C25.6328 10.5633 25.7688 10.8956 25.8944 11.233C26.02 11.5704 26.1456 11.8714 26.2502 12.1466L26.5014 12.8058L25.2874 12.8006ZM31.1425 9.95602C31.0737 10.165 30.9593 10.3564 30.8077 10.5166C30.6229 10.7033 30.3973 10.8454 30.1484 10.9319C29.8121 11.047 29.4574 11.0997 29.1019 11.0876C28.9276 11.0974 28.7529 11.0974 28.5786 11.0876L28.3013 11.0409V12.8058H27.2025V8.04579C27.1866 7.96141 27.192 7.87443 27.2183 7.79264C27.2446 7.71085 27.291 7.63681 27.3532 7.57715C27.4154 7.51748 27.4916 7.47406 27.5748 7.45076C27.6581 7.42746 27.7459 7.42502 27.8304 7.44365H29.3112C29.4315 7.44365 29.5519 7.44365 29.667 7.44365C29.7747 7.45742 29.8813 7.47823 29.9862 7.50594C30.1859 7.55151 30.3745 7.63622 30.5408 7.7551C30.6976 7.86692 30.8309 8.00797 30.9332 8.17037C31.0343 8.33045 31.1086 8.50576 31.153 8.68946C31.2051 8.87539 31.2315 9.06747 31.2315 9.26045C31.2304 9.48588 31.1951 9.70986 31.1268 9.92488M35.2552 10.3038C34.7634 11.1862 34.2715 12.0324 33.764 12.8369H32.5082C32.6704 12.593 32.8431 12.3179 33.0315 12.0272C33.2198 11.7365 33.3925 11.4146 33.5547 11.0928C33.3768 10.8125 33.2094 10.5426 33.0315 10.2779L32.5815 9.54594L32.2152 8.92823L31.9431 8.46625C31.896 8.38839 31.5088 7.66686 31.5088 7.66686C31.6905 7.55021 31.8966 7.47604 32.1114 7.44997C32.3262 7.42389 32.5442 7.44658 32.7489 7.51633C32.8169 7.65129 32.9059 7.81739 33.0158 8.00426L33.4239 8.63236C33.5495 8.85037 33.6803 9.07358 33.8216 9.30197L34.214 9.9664C34.418 9.59266 34.6012 9.23968 34.7791 8.89709C34.957 8.55449 35.3285 7.80701 35.4645 7.52671C35.6553 7.46987 35.8557 7.45207 36.0535 7.47437C36.2514 7.49668 36.4427 7.55864 36.6157 7.65648C36.2075 8.54411 35.7575 9.43175 35.2709 10.309M41.44 12.4736C41.3105 12.5456 41.1758 12.6081 41.0371 12.6604C40.8387 12.7305 40.636 12.7878 40.4301 12.8317C40.1646 12.882 39.8947 12.9063 39.6243 12.9044C39.2554 12.9066 38.8889 12.8451 38.5412 12.7227C38.2142 12.6174 37.9154 12.4399 37.6674 12.2037C37.413 11.9537 37.215 11.6529 37.0866 11.3212C36.9372 10.9337 36.8644 10.5213 36.8721 10.1066C36.8666 9.70713 36.9395 9.31047 37.0866 8.93862C37.2182 8.61173 37.4168 8.31557 37.6699 8.06893C37.923 7.82229 38.2251 7.63057 38.5569 7.50594C38.9122 7.37711 39.2879 7.31207 39.6662 7.31388C40.3649 7.27868 41.0534 7.49222 41.6074 7.91602C41.6163 8.09391 41.5841 8.27146 41.5132 8.4351C41.4806 8.50343 41.4402 8.56786 41.3929 8.62717C41.3512 8.68048 41.3038 8.72921 41.2516 8.77251C41.2144 8.80412 41.1741 8.83194 41.1313 8.85556L40.9586 8.69465C40.8689 8.61944 40.7705 8.55498 40.6656 8.50259C40.5302 8.43348 40.3882 8.37784 40.2418 8.33648C40.066 8.28995 39.8847 8.26725 39.7028 8.269C39.4708 8.2665 39.2408 8.31248 39.0278 8.40396C38.8279 8.48663 38.6492 8.61255 38.5046 8.77251C38.3428 8.93972 38.2165 9.13741 38.1331 9.35388C38.0522 9.59655 38.0133 9.85102 38.018 10.1066C37.9812 10.601 38.143 11.0899 38.468 11.4666C38.6262 11.6242 38.816 11.7472 39.0251 11.8276C39.2341 11.9081 39.4579 11.9442 39.6819 11.9337C39.8738 11.9362 40.0654 11.9152 40.2522 11.8714C40.3983 11.8411 40.5418 11.7995 40.6813 11.7469C40.7816 11.7096 40.878 11.6627 40.9691 11.6067L41.1103 11.5133L41.6336 12.349C41.5745 12.3973 41.5115 12.4407 41.4452 12.4788M46.6777 11.7832C46.5702 12.006 46.4127 12.2013 46.2172 12.3542C46.0219 12.5081 45.7951 12.6179 45.5527 12.676C45.2915 12.745 45.0224 12.7799 44.7521 12.7798H42.5283V7.65648C42.6876 7.53927 42.8711 7.45848 43.0656 7.41989C43.2601 7.3813 43.4608 7.38587 43.6533 7.43327V9.21373H44.0457C44.1922 9.21373 44.3597 9.21373 44.569 9.21373C44.8839 9.21207 45.198 9.24515 45.5056 9.31236C45.7622 9.36195 46.0061 9.4626 46.2224 9.60823C46.4208 9.73637 46.58 9.91587 46.6829 10.1273C46.7944 10.3844 46.848 10.6625 46.8399 10.9423C46.8457 11.2413 46.783 11.5376 46.6567 11.8092" fill="#21B14C"/>
<path d="M45.3546 10.2882C45.0581 10.1601 44.7355 10.1032 44.4127 10.1221H43.9784C43.8424 10.1221 43.7325 10.1221 43.6436 10.1532V11.8091H44.5278C44.8149 11.8242 45.0998 11.7517 45.3441 11.6014C45.4507 11.5233 45.5352 11.4192 45.5892 11.2991C45.6433 11.1791 45.6652 11.0472 45.6528 10.9163C45.667 10.7911 45.6457 10.6644 45.5911 10.5507C45.5366 10.4369 45.451 10.3406 45.3441 10.2726" fill="#21B14C"/>
<path d="M23.9129 9.30203L23.6983 8.78294L23.578 8.47668C23.5536 8.52859 23.5117 8.62722 23.4524 8.77256C23.3896 8.91791 23.3216 9.0892 23.2431 9.29165C23.1646 9.49409 23.0704 9.7121 22.9763 9.95088C22.8821 10.1897 22.7827 10.4336 22.6885 10.6724H24.4623C24.3733 10.4336 24.2739 10.1949 24.1797 9.95088C24.0855 9.70691 23.9966 9.49409 23.9129 9.29165" fill="#21B14C"/>
<path d="M8.2781 10.4543C8.1757 10.3986 8.06404 10.3617 7.94846 10.3453C7.803 10.3235 7.65604 10.3131 7.50893 10.3142C7.334 10.3124 7.15916 10.3228 6.98569 10.3453L6.62988 10.3868V11.8091H7.70253C7.81066 11.8092 7.91822 11.7935 8.02171 11.7624C8.12445 11.7377 8.22075 11.6917 8.30426 11.6274C8.38554 11.5586 8.45148 11.4738 8.49786 11.3783C8.54824 11.2638 8.57322 11.1398 8.57112 11.0149C8.57566 10.8931 8.55054 10.772 8.49786 10.6619C8.45219 10.5684 8.37928 10.4907 8.28857 10.4387" fill="#21B14C"/>
<path d="M29.5898 8.41961C29.5097 8.39335 29.4274 8.37424 29.3439 8.36251C29.2463 8.35735 29.1485 8.35735 29.0509 8.36251H28.3184V10.143L28.5591 10.1845C28.6904 10.2064 28.8235 10.2168 28.9567 10.2156C29.1507 10.2214 29.3441 10.1915 29.5271 10.1274C29.6592 10.0799 29.779 10.0036 29.8776 9.90419C29.9613 9.81805 30.0223 9.7129 30.0555 9.59793C30.0904 9.49058 30.108 9.37848 30.1079 9.26571C30.1061 9.09706 30.063 8.93137 29.9823 8.78296C29.9431 8.70284 29.8882 8.63127 29.8208 8.57245C29.7535 8.51362 29.6749 8.46872 29.5898 8.44037" fill="#21B14C"/>
<path d="M25.9673 20.2598H22.7441C23.7488 21.0281 24.9889 21.8171 25.9935 22.5646C27.0033 21.7963 28.233 21.0073 29.2481 20.2598H25.9673Z" fill="#F02729"/>
<path d="M8.07845 39.1908C6.31357 36.0335 4.72063 32.7846 3.30647 29.458C2.95589 34.8357 4.07563 39.0818 5.28433 42.8037C5.33142 42.9542 5.46746 43.3227 5.51455 43.4681C6.37824 42.1423 7.3476 40.8873 8.41333 39.7151C8.35054 39.6165 8.13601 39.3102 8.07845 39.196" fill="#F02729"/>
<path d="M3.26562 20.2546V26.3435C6.33673 23.9953 9.63542 21.9557 13.1131 20.2546H3.26562Z" fill="#F02729"/>
<path d="M15.8226 21.6718H13.6459C13.4837 22.1182 13.3738 22.4296 13.2012 22.9176H11.4117C11.1919 23.4989 11.0402 23.8779 10.8152 24.4748L8.94194 24.506C8.65939 25.186 8.48149 25.6324 8.21464 26.276H6.31526L5.22168 28.8715H7.15245C6.86467 29.5774 6.62921 30.1276 6.2734 31.0516H8.36638C8.08382 31.8147 7.87453 32.396 7.52919 33.3667H9.76867C9.51751 34.1713 9.32391 34.7786 9.02043 35.7753H12.1599C12.4006 34.789 12.5471 34.1817 12.7512 33.3771H14.9749C15.1686 32.4064 15.2837 31.8199 15.4459 31.036H17.4604C17.6069 30.0965 17.7011 29.5255 17.8214 28.7936H19.6214C19.7731 27.6568 19.8411 27.1066 19.9824 26.0995L18.2505 26.1411C18.3603 25.4767 18.4388 25.025 18.5592 24.345L16.8377 24.3762L17.1778 22.8605H15.4877C15.4877 22.7982 15.5244 22.7411 15.5401 22.6892C15.6499 22.2999 15.7284 22.0196 15.8435 21.651M15.9848 25.0614C15.854 25.6064 15.7546 26.0528 15.5767 26.8107H17.3191C17.2354 27.2675 17.1673 27.662 17.0784 28.1603H15.2732C15.0953 28.9701 14.9802 29.484 14.8232 30.2366H12.8296C12.5994 31.1035 12.6151 31.0101 12.4163 31.7628H10.8466C11.0768 31.0049 11.0768 31.1035 11.3384 30.2366H9.35531L10.0826 28.2122H8.29312L8.81637 26.9041H10.5588C10.8309 26.1567 10.9931 25.7154 11.1971 25.1704L12.9657 25.1392C13.1802 24.4748 13.1959 24.4489 13.3477 23.9869H14.5877C14.4517 24.4489 14.4517 24.4748 14.2581 25.1392L15.9639 25.1133" fill="#F02729"/>
<path d="M13.8603 26.0995H12.8818L12.5888 27.0079H11.6627C11.5318 27.3816 11.4691 27.5737 11.333 27.9682H12.2905L11.9714 28.9908H13.0179C13.1277 28.5755 13.1853 28.3731 13.2952 27.9786H14.2422C14.3417 27.5789 14.3888 27.3868 14.4882 27.0131H13.5673C13.6771 26.6341 13.7295 26.4525 13.8289 26.0995" fill="#F02729"/>
<path d="M24.1685 51.5607C24.1424 52.5988 24.1267 53.3152 24.0953 54.4987H27.9045C27.8783 53.3152 27.8574 52.5781 27.8312 51.5607H30.6568C30.594 50.346 30.5521 49.5933 30.4893 48.5655H33.2207C33.1003 47.3301 33.0271 46.5723 32.9172 45.5497H35.5334C35.3032 43.9924 35.1828 43.1878 34.9369 41.641H32.4776C32.3625 40.6028 32.2683 39.902 32.1271 38.7341H29.8039C29.7306 37.7582 29.6783 37.0678 29.5893 35.957H27.4126C27.4126 35.1057 27.376 34.488 27.3499 33.5952C27.3499 33.5173 27.3499 33.4394 27.3499 33.3564H24.6604C24.6604 33.4394 24.6604 33.5173 24.6604 33.5952C24.629 34.488 24.6133 35.1057 24.5924 35.957H22.4366C22.3424 37.0678 22.2901 37.7582 22.2168 38.7341H19.8989C19.7523 39.902 19.6634 40.6287 19.5431 41.641H17.089C16.8379 43.1982 16.7123 43.9768 16.4873 45.5497H19.1035C18.9936 46.5878 18.9204 47.3301 18.8053 48.5655H21.5366C21.4686 49.6037 21.432 50.346 21.3639 51.5607H24.1895M20.5895 44.5634C20.6523 43.8938 20.7047 43.3539 20.7727 42.6947H23.0122C23.0749 41.5994 23.1116 40.9402 23.1691 40.0629H25.1418C25.1418 39.0248 25.1418 38.7704 25.1784 37.9347H26.8214C26.8214 38.7704 26.8214 39.004 26.858 40.0629H28.8306C28.8882 40.9402 28.9248 41.6202 28.9876 42.6947H31.2271C31.2951 43.3539 31.3474 43.8938 31.4102 44.5634H29.0923C29.155 45.6691 29.1917 46.3439 29.2388 47.273H27.0097C27.0097 48.3839 27.0411 48.5032 27.0568 49.4168H24.9639C24.9639 48.5032 24.9953 48.3787 25.0162 47.273H22.7819C22.8343 46.3439 22.8656 45.6691 22.9284 44.5634H20.6105" fill="#F02729"/>
<path d="M25.3033 45.7157H26.6951C26.6951 45.1447 26.6951 44.8592 26.6951 44.2934H28.1131C28.087 43.7276 28.0765 43.4421 28.0556 42.8763H26.6585C26.6585 42.3157 26.6585 42.0354 26.6585 41.48H25.3609C25.3609 42.0354 25.3609 42.3157 25.3609 42.8763H23.9638C23.9638 43.4421 23.9324 43.7276 23.9062 44.2934H25.3242C25.3242 44.8592 25.3242 45.1447 25.3242 45.7157" fill="#F02729"/>
<path d="M43.9224 39.1908C43.8649 39.2895 43.6503 39.5957 43.5928 39.7099C44.6629 40.8861 45.6374 42.1445 46.5072 43.4733C46.5543 43.3227 46.6904 42.9542 46.7375 42.8088C47.9462 39.087 49.0659 34.8409 48.7153 29.4632C47.3019 32.7968 45.7089 36.0527 43.9433 39.2168" fill="#F02729"/>
<path d="M48.7361 20.2546H38.8887C42.367 21.9545 45.6658 23.9942 48.7361 26.3435V20.2546Z" fill="#F02729"/>
<path d="M45.6904 26.3435L43.7911 26.3124L43.0585 24.5423L41.1853 24.5112C40.9603 23.935 40.8138 23.5457 40.5888 22.9539H38.7993C38.6319 22.466 38.5168 22.1545 38.3598 21.7081H36.1831C36.293 22.0819 36.3767 22.3622 36.4866 22.7463C36.4866 22.7982 36.5023 22.8553 36.5337 22.9176H34.8436L35.1837 24.4333L33.4622 24.4022C33.5826 25.0822 33.6611 25.5338 33.7709 26.1982H32.0547C32.196 27.2 32.2692 27.7555 32.4157 28.8923H34.2209C34.336 29.6242 34.4302 30.1952 34.5767 31.1347H36.5964C36.7534 31.9133 36.8738 32.5051 37.0621 33.4758H39.2912C39.49 34.2803 39.6417 34.8825 39.8772 35.8739H43.0167C42.7132 34.8773 42.5248 34.27 42.2684 33.4654H44.5079C44.1626 32.4947 43.9533 31.9081 43.6707 31.1503H45.7637C45.3974 30.2263 45.1724 29.6761 44.8846 28.9701H46.8154L45.7271 26.3747M41.9178 28.2123C42.2056 29.0064 42.3888 29.5152 42.6452 30.2367H40.6464C40.908 31.0984 40.908 30.9997 41.133 31.7576H39.5632C39.3592 30.9997 39.3801 31.0984 39.1446 30.2315H37.2034C37.0412 29.51 36.9261 28.9909 36.7482 28.1552H34.943C34.854 27.6361 34.786 27.2623 34.7023 26.8055H36.4447C36.272 26.0477 36.1674 25.6013 36.0366 25.0562L37.7424 25.0822C37.5488 24.4177 37.5488 24.3918 37.4127 23.9298H38.6528C38.8045 24.3918 38.8202 24.4177 39.0348 25.0822L40.8033 25.1133C41.0074 25.6324 41.1696 26.0996 41.4417 26.8471H43.1893C43.3672 27.2935 43.519 27.6776 43.7126 28.1552H41.9178" fill="#F02729"/>
<path d="M39.4122 27.0235C39.2919 26.6498 39.2343 26.4681 39.1244 26.1151H38.1407C38.2454 26.4681 38.2925 26.6342 38.4024 27.0287H37.4814C37.5809 27.4024 37.628 27.5945 37.7274 27.9942H38.6744L38.957 29.0012H40.0035L39.7052 27.9838H40.6628C40.532 27.5893 40.4639 27.3972 40.3384 27.0235H39.407" fill="#F02729"/>
<path d="M39.6357 39.0455C39.1961 38.5264 38.7409 37.9502 38.27 37.3948C37.7467 36.7511 37.1659 36.1075 36.6008 35.469C36.2084 35.0278 35.8107 34.5866 35.4131 34.1609C34.8323 33.5276 34.1887 32.8632 33.5032 32.1884C32.9277 31.6122 32.3207 31.0256 31.698 30.4339C31.0754 29.8421 30.2853 29.1102 29.558 28.451C28.9929 27.9319 28.4173 27.4128 27.8522 26.8937C28.4278 26.3746 28.9929 25.8556 29.5266 25.3365C29.8562 25.0354 30.1754 24.7395 30.4893 24.4644L31.3318 23.7481L33.0428 22.2479L34.7486 20.7893L35.4131 20.2391H31.8812L31.2167 20.7582L29.4795 22.2116L28.6318 22.9227L27.6377 23.7688C27.1144 24.2204 26.5598 24.6928 25.9999 25.1808C25.44 24.6928 24.8906 24.2204 24.3622 23.7688L23.368 22.9227L22.5256 22.2116L20.7832 20.7582C20.5477 20.5609 20.3279 20.3792 20.1187 20.2391H16.6129L17.2722 20.7893C17.696 21.1475 18.2768 21.6406 18.978 22.2479L20.689 23.7481L21.5157 24.4852C21.8244 24.7603 22.1436 25.0562 22.4733 25.3572C22.9965 25.8452 23.5721 26.3591 24.1476 26.9145C23.5825 27.4336 23.007 27.9527 22.4419 28.4717C21.7198 29.131 20.9977 29.7954 20.3018 30.4546C19.6059 31.1139 19.0774 31.633 18.4966 32.2092C17.8164 32.884 17.1728 33.5484 16.5815 34.1817C16.1891 34.6073 15.7914 35.0485 15.399 35.4898C14.8339 36.13 14.2775 36.7719 13.7298 37.4156C13.2642 37.971 12.8037 38.5264 12.3642 39.0662C9.81598 42.1808 8.12067 44.4492 7.75963 45.0669C7.48754 45.5392 6.85965 46.7124 7.50324 47.8959C8.79012 50.2686 10.3417 52.4904 12.1287 54.5194C12.3261 54.787 12.5869 55.0024 12.888 55.1463C13.1892 55.2902 13.5214 55.3584 13.8554 55.3447C14.6612 55.2201 18.7582 54.8672 19.339 54.5972C19.9198 54.3273 20.1082 53.8965 19.5849 53.4449C17.0094 51.1566 14.6934 48.5962 12.6781 45.8091C12.1915 44.9475 13.2746 43.9249 14.5356 42.1133C14.9333 41.5475 15.3781 40.9298 15.8542 40.2861C16.3304 39.6424 16.8693 38.9417 17.4239 38.2409C18.4233 36.964 19.5169 35.6455 20.5634 34.3997C21.1233 33.7456 21.6936 33.1124 22.243 32.5154C22.6825 32.0482 23.1011 31.607 23.5197 31.1917C23.7709 30.9374 24.043 30.6727 24.2732 30.4391C24.8523 29.8646 25.4261 29.304 25.9947 28.7572C26.5598 29.304 27.1336 29.8646 27.7162 30.4391C27.9673 30.683 28.2394 30.9582 28.4749 31.1917C28.8882 31.6018 29.312 32.0482 29.7463 32.5154C30.301 33.1124 30.8661 33.7456 31.4312 34.3997C32.5091 35.6455 33.5817 36.964 34.5707 38.2409C35.0939 38.9417 35.6171 39.6269 36.1404 40.2861C36.6636 40.9453 37.0561 41.5475 37.4537 42.1133C38.7147 43.9249 39.7979 44.9475 39.3112 45.8091C38.8246 46.6708 35.1253 51.1765 32.4097 53.4449C31.8864 53.8965 32.0748 54.3273 32.6503 54.5972C33.2259 54.8672 36.9933 55.2409 37.8043 55.3655C38.1914 55.4218 38.5866 55.3729 38.9478 55.2239C39.3091 55.0749 39.6227 54.8314 39.8554 54.5194C41.6453 52.4914 43.1987 50.2695 44.4861 47.8959C45.1297 46.7124 44.4861 45.5392 44.2297 45.0669C43.8739 44.4492 42.1734 42.1808 39.6252 39.0662" fill="#F02729"/>
<path d="M15.0166 57.255C18.0566 60.193 21.8188 62.4458 26.1565 64.2574C30.1788 62.5996 33.8619 60.2264 37.0242 57.255C29.7403 56.0298 22.3005 56.0298 15.0166 57.255Z" fill="#F02729"/>
<defs>
<clipPath id="clip0_342_21512">
<rect width="20" height="20" fill="white" transform="translate(92 33.7275)"/>
</clipPath>
<clipPath id="clip1_342_21512">
<rect width="13" height="14" fill="white" transform="translate(75 36.7275)"/>
</clipPath>
<clipPath id="clip2_342_21512">
<rect width="9" height="9" fill="white" transform="translate(62 39.7275)"/>
</clipPath>
<clipPath id="clip3_342_21512">
<rect width="13" height="14" fill="white" transform="translate(116 36.7275)"/>
</clipPath>
<clipPath id="clip4_342_21512">
<rect width="9" height="9" fill="white" transform="translate(133 39.7275)"/>
</clipPath>
</defs>
</svg>
