<svg width="36" height="36" viewBox="0 0 36 36" fill="none" xmlns="http://www.w3.org/2000/svg">
<path d="M29.9862 24.4244C29.8405 22.9399 28.4864 21.7741 26.9093 21.7741C26.8648 21.7744 26.8206 21.766 26.7794 21.7494C26.7382 21.7329 26.7008 21.7085 26.6693 21.6777C26.6378 21.6468 26.6129 21.6102 26.596 21.5699C26.5791 21.5296 26.5705 21.4864 26.5708 21.4428V16.5028C26.5708 12.8335 24.171 9.63381 20.8669 8.43866C20.9055 8.24993 20.9269 8.05706 20.9269 7.86413C20.927 6.28325 19.6157 5 18.0001 5C16.3844 5 15.0732 6.28325 15.0732 7.8642C15.0732 8.05293 15.0946 8.2416 15.1288 8.42193C13.9933 8.81613 12.9433 9.44095 12.0477 10.288C10.3593 11.8816 9.42939 14.0245 9.42939 16.3225V21.4429C9.42939 21.6232 9.2794 21.7742 9.09082 21.7742C7.50954 21.7742 6.15962 22.94 6.01392 24.4245C5.93248 25.2507 6.21108 26.0725 6.78101 26.6848C7.34666 27.2929 8.15662 27.6452 9.0008 27.6452H14.169C14.3832 29.5281 16.0202 31 18.0001 31C19.9799 31 21.6169 29.5281 21.8312 27.6452H26.9994C27.8436 27.6452 28.6535 27.2929 29.2191 26.6848C29.7848 26.0725 30.0677 25.2506 29.9862 24.4244ZM18.0001 6.67738C18.6686 6.67738 19.2128 7.20997 19.2128 7.86413C19.2128 7.91861 19.2042 7.96897 19.1956 8.02345C18.9042 7.9815 18.6085 7.95216 18.3128 7.94375C17.8028 7.92695 17.3015 7.96056 16.8044 8.02765C16.7958 7.97317 16.7872 7.92281 16.7872 7.86833C16.7873 7.20997 17.3316 6.67738 18.0001 6.67738ZM18.0001 29.3225C16.9673 29.3225 16.1017 28.6012 15.9002 27.6451H20.0998C19.8985 28.6012 19.0329 29.3225 18.0001 29.3225ZM27.9507 25.5567C27.7021 25.8209 27.3678 25.9676 26.9993 25.9676H9.00087C8.63231 25.9676 8.29811 25.8209 8.04949 25.5567C7.80095 25.2925 7.68523 24.9444 7.7238 24.5838C7.78377 23.9506 8.38806 23.4516 9.09512 23.4516C10.2265 23.4516 11.1478 22.55 11.1478 21.4429V16.3225C11.1478 14.4858 11.8934 12.7706 13.2433 11.4958C14.5289 10.2755 16.2088 9.61287 18.0001 9.61287C18.0858 9.61287 18.1672 9.61287 18.2529 9.61708C21.8912 9.74285 24.8566 12.8335 24.8566 16.5029V21.4429C24.8566 22.55 25.778 23.4516 26.9093 23.4516C27.6164 23.4516 28.2207 23.9506 28.2806 24.5838C28.3149 24.9444 28.1992 25.2883 27.9507 25.5567ZM6.90103 15.0645C7.29528 15.0645 7.65095 14.7961 7.73668 14.4061C8.15233 12.5652 9.09082 10.8878 10.4621 9.55426C10.7964 9.22714 10.7964 8.69456 10.4621 8.36751C10.1279 8.0404 9.58361 8.0404 9.24941 8.36751C7.64673 9.92738 6.54535 11.8942 6.06115 14.0496C5.95831 14.5025 6.24972 14.9512 6.71253 15.0477C6.78109 15.0603 6.84106 15.0645 6.90103 15.0645ZM29.0991 15.0645C29.1591 15.0645 29.2234 15.0561 29.2834 15.0436C29.7462 14.9429 30.0376 14.4984 29.9348 14.0455C29.4505 11.89 28.3492 9.92745 26.7464 8.36324C26.4122 8.03613 25.8679 8.03613 25.5337 8.36324C25.1995 8.69036 25.1994 9.22294 25.5337 9.54999C26.9007 10.8835 27.8435 12.561 28.2592 14.4019C28.3492 14.7961 28.7049 15.0645 29.0991 15.0645Z" fill="white"/>
</svg>
