<svg width="19.000000" height="19.000000" viewBox="0 0 19 19" fill="none" xmlns="http://www.w3.org/2000/svg" xmlns:xlink="http://www.w3.org/1999/xlink">
	<desc>
			Created with Pixso.
	</desc>
	<defs>
		<clipPath id="clip192_6786">
			<rect id="Frame" rx="-0.500000" width="18.000000" height="18.000000" transform="translate(0.500000 0.500000)" fill="white" fill-opacity="0"/>
		</clipPath>
	</defs>
	<rect id="Frame" rx="-0.500000" width="18.000000" height="18.000000" transform="translate(0.500000 0.500000)" fill="#FFFFFF" fill-opacity="0"/>
	<g clip-path="url(#clip192_6786)">
		<path id="Vector" d="M18.02 7.5L16.69 7.27C16.55 6.83 16.37 6.39 16.15 5.98L16.94 4.88C17.27 4.41 17.22 3.77 16.81 3.37L15.63 2.19C15.41 1.96 15.11 1.84 14.8 1.84C14.55 1.84 14.32 1.92 14.12 2.06L13.02 2.84C12.59 2.62 12.14 2.43 11.68 2.29L11.45 0.98C11.36 0.41 10.87 0 10.29 0L8.62 0C8.05 0 7.56 0.41 7.47 0.98L7.24 2.32C6.79 2.46 6.36 2.65 5.94 2.87L4.85 2.08C4.66 1.94 4.42 1.86 4.17 1.86C3.86 1.86 3.56 1.99 3.34 2.21L2.16 3.39C1.75 3.8 1.69 4.44 2.03 4.9L2.82 6.02C2.6 6.44 2.43 6.87 2.29 7.32L0.98 7.54C0.41 7.64 0 8.12 0 8.7L0 10.37C0 10.95 0.41 11.43 0.98 11.53L2.33 11.76C2.46 12.2 2.65 12.64 2.87 13.05L2.09 14.14C1.75 14.61 1.81 15.24 2.21 15.65L3.4 16.83C3.62 17.05 3.91 17.18 4.23 17.18C4.47 17.18 4.71 17.1 4.91 16.96L6.02 16.17C6.42 16.38 6.84 16.55 7.27 16.68L7.5 18.01C7.59 18.58 8.08 19 8.66 19L10.33 19C10.91 19 11.39 18.58 11.49 18.01L11.72 16.68C12.16 16.54 12.6 16.36 13.01 16.15L14.11 16.93C14.31 17.07 14.55 17.15 14.79 17.15C15.1 17.15 15.4 17.03 15.62 16.8L16.8 15.62C17.21 15.22 17.26 14.58 16.93 14.11L16.15 13.01C16.36 12.59 16.55 12.16 16.68 11.71L18.01 11.49C18.58 11.39 19 10.91 19 10.33L19 8.66C19 8.08 18.59 7.6 18.02 7.5ZM17.93 10.33C17.93 10.38 17.9 10.43 17.84 10.43L16.18 10.71C15.97 10.75 15.8 10.9 15.75 11.1C15.6 11.69 15.37 12.25 15.06 12.77C14.95 12.95 14.96 13.18 15.08 13.35L16.06 14.73C16.09 14.77 16.08 14.83 16.05 14.87L14.87 16.05C14.84 16.08 14.81 16.08 14.79 16.08C14.77 16.08 14.75 16.07 14.73 16.06L13.35 15.08C13.18 14.96 12.95 14.95 12.77 15.06C12.25 15.37 11.69 15.6 11.11 15.75C10.9 15.8 10.75 15.97 10.72 16.18L10.43 17.84C10.43 17.9 10.38 17.93 10.33 17.93L8.66 17.93C8.61 17.93 8.56 17.9 8.56 17.84L8.28 16.18C8.24 15.97 8.09 15.8 7.89 15.75C7.32 15.6 6.77 15.38 6.26 15.08C6.17 15.03 6.08 15.01 5.99 15.01C5.88 15.01 5.77 15.04 5.68 15.11L4.29 16.1C4.27 16.11 4.25 16.12 4.23 16.12C4.21 16.12 4.18 16.11 4.16 16.09L2.97 14.9C2.94 14.87 2.93 14.81 2.96 14.77L3.94 13.4C4.06 13.22 4.07 12.99 3.96 12.81C3.65 12.3 3.41 11.74 3.26 11.15C3.21 10.95 3.04 10.79 2.83 10.76L1.15 10.47C1.1 10.47 1.07 10.42 1.07 10.37L1.07 8.7C1.07 8.65 1.1 8.6 1.15 8.6L2.81 8.32C3.02 8.28 3.19 8.13 3.24 7.92C3.39 7.34 3.61 6.77 3.92 6.25C4.03 6.07 4.02 5.85 3.89 5.67L2.91 4.29C2.88 4.25 2.88 4.19 2.92 4.15L4.1 2.97C4.13 2.94 4.16 2.94 4.17 2.94C4.2 2.94 4.22 2.94 4.23 2.96L5.6 3.93C5.78 4.06 6.01 4.06 6.19 3.96C6.71 3.65 7.27 3.41 7.85 3.26C8.05 3.2 8.21 3.04 8.24 2.83L8.53 1.15C8.54 1.1 8.58 1.06 8.63 1.06L10.3 1.06C10.35 1.06 10.4 1.1 10.41 1.15L10.68 2.81C10.72 3.02 10.87 3.19 11.08 3.24C11.68 3.39 12.25 3.62 12.78 3.94C12.97 4.04 13.19 4.04 13.37 3.91L14.74 2.93C14.76 2.92 14.78 2.91 14.8 2.91C14.81 2.91 14.84 2.91 14.87 2.94L16.05 4.12C16.09 4.16 16.09 4.21 16.07 4.26L15.08 5.64C14.96 5.81 14.95 6.04 15.06 6.22C15.37 6.74 15.6 7.3 15.75 7.88C15.8 8.09 15.98 8.24 16.18 8.27L17.85 8.56C17.9 8.56 17.93 8.61 17.93 8.66L17.93 10.33Z" fill="#BABABA" fill-opacity="1.000000" fill-rule="nonzero"/>
		<path id="Vector" d="M9.5 5.39C7.24 5.39 5.4 7.23 5.4 9.49C5.4 11.76 7.24 13.59 9.5 13.59C11.76 13.59 13.6 11.76 13.6 9.49C13.6 7.23 11.76 5.39 9.5 5.39ZM9.5 12.52C7.83 12.52 6.47 11.16 6.47 9.49C6.47 7.82 7.83 6.46 9.5 6.46C11.17 6.46 12.53 7.82 12.53 9.49C12.53 11.16 11.17 12.52 9.5 12.52Z" fill="#BABABA" fill-opacity="1.000000" fill-rule="nonzero"/>
	</g>
</svg>
