<svg width="22.000000" height="16.000000" viewBox="0 0 22 16" fill="none" xmlns="http://www.w3.org/2000/svg" xmlns:xlink="http://www.w3.org/1999/xlink">
	<desc>
			Created with Pixso.
	</desc>
	<defs/>
	<path id="Vector" d="M5.5 16C3.97 16 2.68 15.47 1.6 14.43C0.53 13.37 0 12.09 0 10.58C0 9.28 0.39 8.12 1.16 7.09C1.95 6.07 2.98 5.43 4.25 5.15C4.66 3.61 5.5 2.37 6.75 1.43C8 0.47 9.41 0 11 0C12.95 0 14.6 0.68 15.96 2.04C17.31 3.39 18 5.04 18 7C19.15 7.13 20.1 7.63 20.85 8.5C21.62 9.35 22 10.35 22 11.5C22 12.75 21.56 13.81 20.68 14.68C19.81 15.56 18.75 16 17.5 16L12 16C11.45 16 10.98 15.8 10.58 15.41C10.19 15.02 10 14.55 10 14L10 8.84L8.39 10.4L7 9L11 5L15 9L13.6 10.4L12 8.84L12 14L17.5 14C18.2 14 18.79 13.75 19.27 13.27C19.75 12.79 20 12.2 20 11.5C20 10.8 19.75 10.21 19.27 9.72C18.79 9.24 18.2 9 17.5 9L16 9L16 7C16 5.62 15.51 4.43 14.54 3.45C13.56 2.48 12.38 2 11 2C9.62 2 8.43 2.48 7.45 3.45C6.48 4.43 6 5.62 6 7L5.5 7C4.53 7 3.7 7.34 3.02 8.03C2.34 8.7 2 9.53 2 10.5C2 11.46 2.34 12.3 3.02 13C3.7 13.66 4.53 14 5.5 14L8 14L8 16L5.5 16Z" fill="#A3A8BA" fill-opacity="1.000000" fill-rule="nonzero"/>
</svg>
