<svg width="28" height="28" viewBox="0 0 28 28" fill="none" xmlns="http://www.w3.org/2000/svg">
<path d="M24.5175 24.0057H24.1255V14.5695C24.1255 14.4376 24.0747 14.3112 23.9842 14.2179C23.8937 14.1247 23.771 14.0723 23.643 14.0723H18.2492C18.1212 14.0723 17.9985 14.1247 17.908 14.2179C17.8176 14.3112 17.7667 14.4376 17.7667 14.5695V24.0057H17.1794V19.5361C17.1794 19.4043 17.1286 19.2778 17.0381 19.1846C16.9476 19.0914 16.8249 19.039 16.6969 19.039H11.3031C11.1751 19.039 11.0524 19.0914 10.9619 19.1846C10.8714 19.2778 10.8206 19.4043 10.8206 19.5361V24.0057H10.2335V22.0195C10.2335 21.8877 10.1826 21.7612 10.0922 21.668C10.0017 21.5747 9.87896 21.5224 9.75101 21.5224H4.35696C4.229 21.5224 4.10629 21.5747 4.01581 21.668C3.92533 21.7612 3.8745 21.8877 3.8745 22.0195V24.0057H3.48246C3.3545 24.0057 3.23179 24.0581 3.14131 24.1513C3.05083 24.2446 3 24.371 3 24.5029C3 24.6347 3.05083 24.7612 3.14131 24.8544C3.23179 24.9476 3.3545 25 3.48246 25H24.5175C24.6455 25 24.7682 24.9476 24.8587 24.8544C24.9492 24.7612 25 24.6347 25 24.5029C25 24.371 24.9492 24.2446 24.8587 24.1513C24.7682 24.0581 24.6455 24.0057 24.5175 24.0057ZM4.83941 24.0057V22.5166H9.26836V24.0057H4.83941ZM11.7855 24.0057V20.0333H16.2144V24.0057H11.7855ZM18.7315 24.0057V15.0666H23.1604V24.0057H18.7315ZM12.8876 15.0666C13.6892 15.0665 14.4805 14.8799 15.2023 14.5207C15.9242 14.1615 16.558 13.639 17.0566 12.9922C17.5551 12.3454 17.9055 11.5909 18.0817 10.7851C18.2578 9.97928 18.2551 9.14288 18.0738 8.33828L20.3061 5.88426C20.3901 5.79193 20.4367 5.67006 20.4365 5.54351C20.4364 5.41696 20.3893 5.29524 20.3051 5.20318L18.4309 3.15601C18.3842 3.10498 18.3275 3.06472 18.2646 3.03787C18.2017 3.01101 18.134 2.99818 18.066 3.00021C17.9979 3.00224 17.9311 3.01908 17.8698 3.04963C17.8085 3.08019 17.7542 3.12376 17.7104 3.17748L16.0746 5.18523C15.3991 4.66516 14.6133 4.31786 13.7821 4.17191C12.9508 4.02596 12.0978 4.08554 11.2933 4.34575C10.4888 4.60596 9.75572 5.05935 9.1545 5.6686C8.55329 6.27784 8.1011 7.02552 7.83517 7.85007C7.56924 8.67463 7.49718 9.55247 7.62491 10.4113C7.75264 11.2702 8.07651 12.0855 8.56986 12.7902C9.06322 13.4948 9.71194 14.0687 10.4626 14.4644C11.2133 14.8602 12.0445 15.0666 12.8877 15.0666H12.8876ZM18.1009 4.24454L19.2919 5.54541L13.0782 12.3761L9.95166 8.89936L10.4341 8.08822L12.774 10.0255C12.8724 10.1069 12.9977 10.1454 13.1233 10.1327C13.2488 10.1201 13.3646 10.0572 13.4457 9.95767L18.1009 4.24454ZM12.8876 5.08849C13.8094 5.08795 14.7074 5.38925 15.4522 5.94889L13.0103 8.94569L10.6113 6.95947C10.5579 6.91524 10.496 6.88324 10.4296 6.86561C10.3633 6.84797 10.294 6.8451 10.2265 6.85718C10.159 6.86926 10.0948 6.89602 10.0381 6.93568C9.98142 6.97534 9.93358 7.02699 9.89777 7.08718L8.93768 8.7011C8.8827 8.79355 8.85855 8.902 8.86894 9.00991C8.87932 9.11782 8.92366 9.21928 8.99519 9.29881L12.7222 13.4432C12.7672 13.4932 12.8217 13.5332 12.8823 13.5605C12.943 13.5879 13.0084 13.6021 13.0746 13.6023H13.076C13.142 13.6023 13.2073 13.5883 13.2678 13.5613C13.3284 13.5343 13.3829 13.4947 13.428 13.4451L17.2357 9.25924C17.243 9.36582 17.2467 9.47282 17.2467 9.58024C17.2467 10.4687 16.9911 11.3371 16.5121 12.0758C16.0331 12.8145 15.3522 13.3903 14.5557 13.7303C13.7591 14.0702 12.8826 14.1592 12.037 13.9859C11.1914 13.8126 10.4146 13.3847 9.80498 12.7565C9.19532 12.1283 8.78014 11.3279 8.61194 10.4566C8.44373 9.58522 8.53006 8.68204 8.86001 7.86124C9.18995 7.04045 9.74869 6.3389 10.4656 5.84532C11.1824 5.35174 12.0253 5.08829 12.8875 5.08829L12.8876 5.08849Z" fill="white" stroke="white" stroke-width="0.4"/>
</svg>
