<svg width="36" height="36" viewBox="0 0 36 36" fill="none" xmlns="http://www.w3.org/2000/svg">
<path d="M33.0923 31.9338H32.5297V18.793C32.5297 18.6094 32.4568 18.4333 32.327 18.3035C32.1971 18.1737 32.0211 18.1007 31.8374 18.1007H24.0974C23.9138 18.1007 23.7377 18.1737 23.6079 18.3035C23.4781 18.4333 23.4051 18.6094 23.4051 18.793V31.9338H22.5623V25.7095C22.5623 25.5259 22.4894 25.3498 22.3595 25.22C22.2297 25.0902 22.0536 25.0172 21.87 25.0172H14.13C13.9464 25.0172 13.7703 25.0902 13.6405 25.22C13.5106 25.3498 13.4377 25.5259 13.4377 25.7095V31.9338H12.5952V29.1678C12.5952 28.9842 12.5222 28.8081 12.3924 28.6783C12.2626 28.5485 12.0865 28.4755 11.9029 28.4755H4.16258C3.97897 28.4755 3.80288 28.5485 3.67304 28.6783C3.54321 28.8081 3.47027 28.9842 3.47027 29.1678V31.9338H2.9077C2.72409 31.9338 2.548 32.0067 2.41817 32.1366C2.28833 32.2664 2.21539 32.4425 2.21539 32.6261C2.21539 32.8097 2.28833 32.9858 2.41817 33.1156C2.548 33.2455 2.72409 33.3184 2.9077 33.3184H33.0923C33.2759 33.3184 33.452 33.2455 33.5819 33.1156C33.7117 32.9858 33.7846 32.8097 33.7846 32.6261C33.7846 32.4425 33.7117 32.2664 33.5819 32.1366C33.452 32.0067 33.2759 31.9338 33.0923 31.9338ZM4.85489 31.9338V29.8601H11.2103V31.9338H4.85489ZM14.8222 31.9338V26.4018H21.1776V31.9338H14.8222ZM24.7895 31.9338V19.4853H31.1449V31.9338H24.7895ZM16.4038 19.4853C17.554 19.4852 18.6894 19.2253 19.7253 18.7251C20.7611 18.2249 21.6707 17.4973 22.3861 16.5965C23.1015 15.6958 23.6043 14.6452 23.8571 13.523C24.1098 12.4008 24.1059 11.2361 23.8457 10.1156L27.049 6.69815C27.1695 6.56957 27.2365 6.39986 27.2362 6.22363C27.236 6.04739 27.1685 5.8779 27.0476 5.74969L24.3582 2.89883C24.2911 2.82777 24.2098 2.7717 24.1196 2.73431C24.0293 2.69692 23.9322 2.67904 23.8345 2.68187C23.7369 2.68469 23.641 2.70815 23.553 2.7507C23.4651 2.79325 23.3872 2.85393 23.3243 2.92874L20.9769 5.7247C20.0076 5.00046 18.8801 4.51681 17.6873 4.31356C16.4945 4.11032 15.2705 4.19329 14.116 4.55565C12.9615 4.91801 11.9096 5.5494 11.0469 6.39782C10.1842 7.24625 9.53529 8.28745 9.1537 9.43571C8.7721 10.584 8.66869 11.8064 8.85198 13.0025C9.03526 14.1985 9.50001 15.3339 10.208 16.3152C10.9159 17.2965 11.8468 18.0956 12.924 18.6468C14.0012 19.1979 15.1939 19.4853 16.4039 19.4853H16.4038ZM23.8846 4.41471L25.5937 6.22627L16.6773 15.7386L12.1908 10.8969L12.8831 9.76736L16.2408 12.4651C16.3819 12.5785 16.5618 12.6322 16.742 12.6145C16.9221 12.5968 17.0882 12.5093 17.2046 12.3707L23.8846 4.41471ZM16.4038 5.58997C17.7264 5.58923 19.0152 6.00881 20.0839 6.78815L16.5798 10.9614L13.1374 8.19547C13.0607 8.13388 12.9719 8.08932 12.8766 8.06476C12.7814 8.0402 12.6821 8.0362 12.5852 8.05302C12.4884 8.06985 12.3962 8.10712 12.3148 8.16235C12.2335 8.21758 12.1648 8.2895 12.1135 8.37333L10.7358 10.6208C10.6569 10.7496 10.6222 10.9006 10.6371 11.0509C10.652 11.2012 10.7156 11.3424 10.8183 11.4532L16.1664 17.2246C16.231 17.2943 16.3092 17.3499 16.3962 17.388C16.4832 17.4261 16.5772 17.4459 16.6722 17.4462H16.6742C16.7688 17.4461 16.8625 17.4267 16.9494 17.3891C17.0362 17.3514 17.1145 17.2964 17.1792 17.2273L22.6431 11.3981C22.6536 11.5465 22.6589 11.6955 22.659 11.8451C22.659 13.0823 22.2921 14.2917 21.6047 15.3204C20.9174 16.3491 19.9404 17.1509 18.7974 17.6244C17.6544 18.0978 16.3966 18.2217 15.1832 17.9803C13.9697 17.739 12.8551 17.1432 11.9803 16.2684C11.1055 15.3935 10.5097 14.2789 10.2683 13.0655C10.027 11.852 10.1508 10.5943 10.6243 9.45127C11.0978 8.30824 11.8995 7.33128 12.9282 6.64392C13.9569 5.95657 15.1663 5.58969 16.4035 5.58969L16.4038 5.58997Z" fill="white" stroke="white" stroke-width="0.5"/>
</svg>
