<svg width="36" height="36" viewBox="0 0 36 36" fill="none" xmlns="http://www.w3.org/2000/svg">
<path d="M31.9839 25.4128C31.8139 23.6999 30.2341 22.3547 28.3942 22.3547C28.3423 22.355 28.2908 22.3454 28.2427 22.3263C28.1946 22.3072 28.151 22.279 28.1142 22.2434C28.0775 22.2079 28.0484 22.1656 28.0286 22.1191C28.0089 22.0726 27.9989 22.0227 27.9992 21.9725V16.2725C27.9992 12.0386 25.1995 8.34671 21.3448 6.96769C21.3898 6.74992 21.4147 6.52738 21.4147 6.30476C21.4148 4.48067 19.885 3 18.0001 3C16.1152 3 14.5854 4.48067 14.5854 6.30484C14.5854 6.52261 14.6103 6.7403 14.6503 6.94838C13.3255 7.40323 12.1006 8.12417 11.0557 9.10159C9.08585 10.9403 8.00096 13.4129 8.00096 16.0645V21.9725C8.00096 22.1806 7.82596 22.3548 7.60596 22.3548C5.76113 22.3548 4.18623 23.7 4.01624 25.4129C3.92122 26.3661 4.24626 27.3145 4.91118 28.021C5.5711 28.7226 6.51606 29.129 7.50093 29.129H13.5304C13.7804 31.3016 15.6903 33 18.0001 33C20.3099 33 22.2198 31.3016 22.4697 29.129H28.4992C29.4842 29.129 30.4291 28.7226 31.089 28.021C31.7489 27.3144 32.0789 26.3661 31.9839 25.4128ZM18.0001 4.93544C18.78 4.93544 19.4149 5.54996 19.4149 6.30476C19.4149 6.36763 19.4049 6.42573 19.3949 6.4886C19.0549 6.44019 18.7099 6.40634 18.3649 6.39664C17.77 6.37725 17.185 6.41603 16.6051 6.49344C16.5951 6.43058 16.5851 6.37248 16.5851 6.30961C16.5852 5.54996 17.2202 4.93544 18.0001 4.93544ZM18.0001 31.0644C16.7952 31.0644 15.7853 30.2321 15.5503 29.129H20.4498C20.215 30.2322 19.205 31.0644 18.0001 31.0644ZM29.6091 26.7193C29.3191 27.0241 28.9291 27.1934 28.4992 27.1934H7.50101C7.07103 27.1934 6.68112 27.0241 6.39107 26.7193C6.10111 26.4145 5.9661 26.0128 6.0111 25.5967C6.08107 24.8661 6.78607 24.2903 7.61097 24.2903C8.93089 24.2903 10.0058 23.25 10.0058 21.9725V16.0645C10.0058 13.9451 10.8757 11.9661 12.4506 10.4952C13.9504 9.08712 15.9103 8.32255 18.0001 8.32255C18.1001 8.32255 18.195 8.32255 18.2951 8.3274C22.5397 8.47252 25.9994 12.0387 25.9994 16.2725V21.9725C25.9994 23.25 27.0743 24.2903 28.3942 24.2903C29.2191 24.2903 29.9241 24.8661 29.9941 25.5967C30.0341 26.0128 29.8991 26.4096 29.6091 26.7193ZM5.0512 14.6129C5.51115 14.6129 5.92611 14.3033 6.02613 13.8532C6.51105 11.729 7.60596 9.7936 9.20583 8.25491C9.59582 7.87747 9.59582 7.26295 9.20583 6.88559C8.81584 6.50815 8.18088 6.50815 7.79098 6.88559C5.92118 8.68544 4.63625 10.9549 4.07134 13.4419C3.95136 13.9644 4.29134 14.4822 4.83128 14.5935C4.91127 14.608 4.98123 14.6129 5.0512 14.6129ZM30.949 14.6129C31.0189 14.6129 31.094 14.6032 31.164 14.5887C31.7039 14.4726 32.0439 13.9597 31.9239 13.4371C31.3589 10.95 30.0741 8.68552 28.2042 6.88066C27.8142 6.50322 27.1792 6.50322 26.7893 6.88066C26.3994 7.2581 26.3993 7.87262 26.7893 8.24998C28.3842 9.78867 29.4841 11.7242 29.969 13.8483C30.0741 14.3032 30.489 14.6129 30.949 14.6129Z" fill="white"/>
</svg>
