<svg width="12.000000" height="16.000000" viewBox="0 0 12 16" fill="none" xmlns="http://www.w3.org/2000/svg" xmlns:xlink="http://www.w3.org/1999/xlink">
	<desc>
			Created with Pixso.
	</desc>
	<defs/>
	<path id="Vector" d="M3.5 7C3.36 7 3.24 7.05 3.14 7.14C3.05 7.24 3 7.36 3 7.5C3 7.63 3.05 7.75 3.14 7.85C3.24 7.94 3.36 8 3.5 8L8.5 8C8.63 8 8.75 7.94 8.85 7.85C8.94 7.75 9 7.63 9 7.5C9 7.36 8.94 7.24 8.85 7.14C8.75 7.05 8.63 7 8.5 7L3.5 7ZM3 9.5C3 9.36 3.05 9.24 3.14 9.14C3.24 9.05 3.36 9 3.5 9L8.5 9C8.63 9 8.75 9.05 8.85 9.14C8.94 9.24 9 9.36 9 9.5C9 9.63 8.94 9.75 8.85 9.85C8.75 9.94 8.63 10 8.5 10L3.5 10C3.36 10 3.24 9.94 3.14 9.85C3.05 9.75 3 9.63 3 9.5ZM3 11.5C3 11.36 3.05 11.24 3.14 11.14C3.24 11.05 3.36 11 3.5 11L5.5 11C5.63 11 5.75 11.05 5.85 11.14C5.94 11.24 6 11.36 6 11.5C6 11.63 5.94 11.75 5.85 11.85C5.75 11.94 5.63 12 5.5 12L3.5 12C3.36 12 3.24 11.94 3.14 11.85C3.05 11.75 3 11.63 3 11.5Z" fill="#A3A8BA" fill-opacity="1.000000" fill-rule="nonzero"/>
	<path id="Vector" d="M7.5 0L2 0C1.46 0 0.96 0.21 0.58 0.58C0.21 0.96 0 1.46 0 2L0 14C0 14.53 0.21 15.03 0.58 15.41C0.96 15.78 1.46 16 2 16L10 16C10.53 16 11.03 15.78 11.41 15.41C11.78 15.03 12 14.53 12 14L12 4.5L7.5 0ZM7.5 1L7.5 3C7.5 3.39 7.65 3.77 7.93 4.06C8.22 4.34 8.6 4.5 9 4.5L11 4.5L11 14C11 14.26 10.89 14.51 10.7 14.7C10.51 14.89 10.26 15 10 15L2 15C1.73 15 1.48 14.89 1.29 14.7C1.1 14.51 1 14.26 1 14L1 2C1 1.73 1.1 1.48 1.29 1.29C1.48 1.1 1.73 1 2 1L7.5 1Z" fill="#A3A8BA" fill-opacity="1.000000" fill-rule="nonzero"/>
</svg>
