<svg width="36.000000" height="36.000000" viewBox="0 0 36 36" fill="none" xmlns="http://www.w3.org/2000/svg" xmlns:xlink="http://www.w3.org/1999/xlink">
	<desc>
			Created with Pixso.
	</desc>
	<defs>
		<clipPath id="clip192_8319">
			<rect id="StarFill" rx="-0.500000" width="35.000000" height="35.000000" transform="translate(0.500000 0.500000)" fill="white" fill-opacity="0"/>
		</clipPath>
		<clipPath id="clip192_8322">
			<rect id="StarFill" rx="-0.500000" width="35.000000" height="35.000000" transform="translate(0.500000 0.500000) rotate(0.000000)" fill="white" fill-opacity="0"/>
		</clipPath>
		<clipPath id="clip192_8321">
			<rect id="Frame 2" rx="-0.500000" width="17.000000" height="35.000000" transform="translate(0.500000 0.500000)" fill="white" fill-opacity="0"/>
		</clipPath>
	</defs>
	<rect id="StarFill" rx="-0.500000" width="35.000000" height="35.000000" transform="translate(0.500000 0.500000)" fill="#FFFFFF" fill-opacity="0"/>
	<g clip-path="url(#clip192_8319)">
		<path id="Vector" d="M8.12 34.74C7.25 35.19 6.26 34.41 6.44 33.41L8.31 22.77L0.38 15.22C-0.36 14.51 0.03 13.22 1.02 13.08L12.04 11.51L16.95 1.78C17.4 0.9 18.59 0.9 19.04 1.78L23.95 11.51L34.97 13.08C35.97 13.22 36.35 14.51 35.61 15.22L27.68 22.77L29.55 33.41C29.73 34.41 28.74 35.19 27.87 34.74L17.99 29.67L8.12 34.74L8.12 34.74Z" fill="#FFFFFF" fill-opacity="0" fill-rule="nonzero"/>
		<path id="Vector" d="M8.31 22.77L6.44 33.41C6.28 34.32 7.09 35.05 7.9 34.83C7.97 34.81 8.04 34.78 8.12 34.74L8.12 34.74L8.12 34.74L8.12 34.74L8.33 34.63L17.99 29.67L27.87 34.74C28.74 35.19 29.73 34.41 29.55 33.41L27.68 22.77L35.61 15.22C36.35 14.51 35.97 13.22 34.97 13.08L23.95 11.51L19.04 1.78C18.59 0.9 17.4 0.9 16.95 1.78L12.04 11.51L1.02 13.08C0.03 13.22 -0.36 14.51 0.38 15.22L8.31 22.77ZM7.66 33.85L7.66 33.85L17.99 28.54L28.33 33.85C28.35 33.86 28.37 33.87 28.4 33.87C28.42 33.87 28.45 33.86 28.48 33.83C28.51 33.81 28.53 33.78 28.55 33.76C28.57 33.71 28.58 33.65 28.57 33.58L26.6 22.41L34.92 14.49C34.95 14.46 34.97 14.43 34.98 14.39C35 14.34 35 14.28 34.98 14.22C34.96 14.16 34.93 14.11 34.89 14.09C34.87 14.08 34.85 14.07 34.83 14.07L23.29 12.43L18.15 2.23C18.12 2.18 18.09 2.14 18.05 2.13C18.03 2.12 18.01 2.12 18 2.12C17.98 2.12 17.96 2.12 17.94 2.13C17.91 2.14 17.87 2.18 17.84 2.23L12.7 12.43L1.16 14.07C1.14 14.07 1.12 14.08 1.1 14.09C1.06 14.11 1.03 14.16 1.01 14.22C0.99 14.29 0.99 14.35 1.01 14.4C1.02 14.43 1.04 14.46 1.07 14.49L9.39 22.41L7.42 33.58L7.42 33.58C7.41 33.65 7.42 33.71 7.44 33.75C7.46 33.78 7.48 33.81 7.51 33.83C7.54 33.86 7.57 33.87 7.59 33.87C7.62 33.87 7.64 33.86 7.66 33.85Z" fill="#FFA800" fill-opacity="1.000000" fill-rule="evenodd"/>
	</g>
	<g clip-path="url(#clip192_8321)">
		<rect id="StarFill" rx="-0.500000" width="35.000000" height="35.000000" transform="translate(0.500000 0.500000) rotate(0.000000)" fill="#FFFFFF" fill-opacity="0"/>
		<g clip-path="url(#clip192_8322)">
			<path id="Vector" d="M8.12 34.74C7.25 35.19 6.26 34.41 6.44 33.41L8.31 22.77L0.38 15.22C-0.36 14.51 0.03 13.22 1.02 13.08L12.04 11.51L16.95 1.78C17.4 0.9 18.59 0.9 19.04 1.78L23.95 11.51L34.97 13.08C35.97 13.22 36.35 14.51 35.61 15.22L27.68 22.77L29.55 33.41C29.73 34.41 28.74 35.19 27.87 34.74L17.99 29.67L8.12 34.74L8.12 34.74Z" fill="#FFA800" fill-opacity="1.000000" fill-rule="nonzero"/>
			<path id="Vector" d="M8.31 22.77L6.44 33.41C6.28 34.32 7.09 35.05 7.9 34.83C7.97 34.81 8.04 34.78 8.12 34.74L8.12 34.74L8.12 34.74L8.12 34.74L8.33 34.63L17.99 29.67L27.87 34.74C28.74 35.19 29.73 34.41 29.55 33.41L27.68 22.77L35.61 15.22C36.35 14.51 35.97 13.22 34.97 13.08L23.95 11.51L19.04 1.78C18.59 0.9 17.4 0.9 16.95 1.78L12.04 11.51L1.02 13.08C0.03 13.22 -0.36 14.51 0.38 15.22L8.31 22.77ZM7.66 33.85L7.66 33.85L17.99 28.54L28.33 33.85Q28.36 33.87 28.4 33.87Q28.44 33.87 28.48 33.83Q28.52 33.8 28.55 33.76Q28.58 33.68 28.57 33.58L26.6 22.41L34.92 14.49Q34.96 14.45 34.98 14.39Q35.01 14.32 34.98 14.22Q34.95 14.12 34.89 14.09Q34.86 14.07 34.83 14.07L23.29 12.43L18.15 2.23Q18.11 2.15 18.05 2.13Q18.02 2.12 18 2.12Q17.97 2.12 17.94 2.13Q17.88 2.15 17.84 2.23L12.7 12.43L1.16 14.07Q1.13 14.07 1.1 14.09Q1.04 14.12 1.01 14.22Q0.98 14.32 1.01 14.4Q1.03 14.45 1.07 14.49L9.39 22.41L7.42 33.58L7.42 33.58Q7.41 33.68 7.44 33.75Q7.47 33.8 7.51 33.83Q7.55 33.87 7.59 33.87Q7.63 33.87 7.66 33.85Z" fill="#FFA800" fill-opacity="1.000000" fill-rule="evenodd"/>
		</g>
	</g>
</svg>
