<svg width="256.320312" height="378.000000" viewBox="0 0 256.32 378" fill="none" xmlns="http://www.w3.org/2000/svg" xmlns:xlink="http://www.w3.org/1999/xlink">
	<desc>
			Created with Pixso.
	</desc>
	<defs>
		<clipPath id="clip192_6681">
			<rect id="aeff844791149a5cec35e5b38280b392 1" rx="-0.500000" width="167.000000" height="245.000000" transform="translate(44.500000 0.500000)" fill="white" fill-opacity="0"/>
		</clipPath>
		<clipPath id="clip192_6721">
			<rect id="StarFill" rx="-0.500000" width="51.000000" height="51.000000" transform="translate(102.500000 326.500000)" fill="white" fill-opacity="0"/>
		</clipPath>
		<clipPath id="clip192_6723">
			<rect id="StarFill" rx="-0.500000" width="35.000000" height="35.000000" transform="translate(56.500000 334.500000)" fill="white" fill-opacity="0"/>
		</clipPath>
		<clipPath id="clip192_6725">
			<rect id="StarFill" rx="-0.500000" width="23.000000" height="23.000000" transform="translate(22.500000 340.500000)" fill="white" fill-opacity="0"/>
		</clipPath>
		<clipPath id="clip192_6727">
			<rect id="StarFill" rx="-0.500000" width="35.000000" height="35.000000" transform="translate(164.500000 334.500000)" fill="white" fill-opacity="0"/>
		</clipPath>
		<clipPath id="clip192_6729">
			<rect id="StarFill" rx="-0.500000" width="23.000000" height="23.000000" transform="translate(210.500000 340.500000)" fill="white" fill-opacity="0"/>
		</clipPath>
	</defs>
	<rect id="aeff844791149a5cec35e5b38280b392 1" rx="-0.500000" width="167.000000" height="245.000000" transform="translate(44.500000 0.500000)" fill="#FFFFFF" fill-opacity="0"/>
	<g clip-path="url(#clip192_6681)">
		<path id="Vector" d="M128 52.16L50.43 52.16L50.43 154.27C50.43 212.67 128 246.03 128 246.03C128 246.03 205.56 212.64 205.56 154.27L205.56 52.16L128 52.16Z" fill="#FFFFFF" fill-opacity="1.000000" fill-rule="nonzero"/>
		<path id="Vector" d="M60.1 100.94L195.92 100.94L195.92 59.5L60.1 59.5L60.1 100.94ZM78.12 87.4C76.76 88.32 75.1 88.74 73.44 88.6L66.88 88.6L66.88 75.1C66.86 74.86 66.89 74.63 66.97 74.4C67.05 74.18 67.17 73.97 67.33 73.8C67.74 73.49 68.25 73.34 68.77 73.38L78.77 73.38C78.88 73.86 78.89 74.36 78.78 74.85C78.68 75.33 78.48 75.79 78.18 76.19L70.17 76.19L70.17 78.98L71.41 78.89C71.82 78.89 72.31 78.89 72.86 78.89C73.79 78.88 74.71 78.97 75.62 79.14C76.38 79.27 77.1 79.55 77.75 79.95C78.33 80.32 78.8 80.83 79.1 81.43C79.43 82.13 79.59 82.89 79.57 83.65C79.64 84.35 79.54 85.05 79.29 85.71C79.04 86.36 78.64 86.96 78.12 87.46L78.12 87.4ZM92.61 79.6C92.61 79.6 93.1 79.79 93.1 81.08C93.1 82.37 92.64 82.44 92.64 82.44L85.74 82.44L85.74 85.83L92.98 85.83C93.5 86.68 93.7 87.67 93.56 88.64L82.36 88.64L82.36 75.1C82.33 74.86 82.36 74.62 82.45 74.39C82.54 74.17 82.67 73.96 82.86 73.79C83.04 73.63 83.26 73.5 83.5 73.43C83.75 73.36 84 73.34 84.25 73.38L93.62 73.38C93.78 73.86 93.82 74.37 93.71 74.86C93.61 75.35 93.38 75.81 93.04 76.19L85.74 76.19L85.74 79.54L92.61 79.6ZM109.89 88.65L106.53 88.65L106.53 76.19L105.59 76.19C105.01 76.18 104.42 76.26 103.86 76.42C103.39 76.56 102.97 76.81 102.61 77.13C102.27 77.48 101.98 77.88 101.78 78.33C101.38 79.43 101.03 80.56 100.76 81.7C100.63 82.31 99.04 88.6 99.04 88.6L95.68 88.6C96.02 87.29 97.57 81.49 97.68 80.99C97.97 79.54 98.41 78.12 98.99 76.76C99.37 76.02 99.9 75.36 100.55 74.82C101.19 74.31 101.93 73.93 102.74 73.72C103.66 73.49 104.61 73.37 105.56 73.38L108.09 73.38C108.48 73.36 108.87 73.41 109.25 73.52C109.49 73.61 109.7 73.77 109.85 73.97L109.89 88.65ZM125.87 88.65C125.73 88.33 125.58 87.9 125.34 87.35L124.54 85.41L116.97 85.41C116.66 86.17 116.41 86.89 116.19 87.35C115.97 87.81 115.8 88.31 115.65 88.65L112.24 88.65C112.59 87.78 112.96 86.88 113.35 85.95C113.74 85.01 114.13 84.1 114.54 83.19L115.69 80.54C116.07 79.69 116.43 78.9 116.76 78.19C117.08 77.48 117.36 76.85 117.61 76.3C117.86 75.75 118.07 75.34 118.22 75.04C118.44 74.45 118.84 73.94 119.36 73.56C119.83 73.29 120.37 73.15 120.92 73.17C121.67 73.14 122.4 73.37 122.97 73.84C123.25 74.3 123.58 74.92 123.97 75.69C124.36 76.46 124.75 77.32 125.17 78.27C125.59 79.21 126.03 80.17 126.46 81.23C126.9 82.28 127.31 83.22 127.68 84.19C128.06 85.15 128.43 86.01 128.74 86.79L129.49 88.67L125.87 88.65ZM143.34 80.54C143.13 81.14 142.79 81.69 142.34 82.14C141.79 82.68 141.12 83.08 140.37 83.33C139.37 83.65 138.31 83.81 137.25 83.77C136.73 83.8 136.21 83.8 135.69 83.77L134.86 83.64L134.86 88.67L131.59 88.67L131.59 75.1C131.54 74.86 131.55 74.61 131.63 74.38C131.71 74.14 131.85 73.93 132.03 73.76C132.22 73.59 132.45 73.47 132.7 73.4C132.94 73.34 133.21 73.33 133.46 73.38L137.88 73.38C138.24 73.38 138.6 73.38 138.94 73.38C139.26 73.42 139.58 73.48 139.89 73.56C140.49 73.69 141.05 73.93 141.54 74.27C142.01 74.59 142.41 74.99 142.72 75.45C143.02 75.91 143.24 76.41 143.37 76.93C143.53 77.46 143.6 78.01 143.6 78.56C143.6 79.2 143.5 79.84 143.29 80.46L143.34 80.54ZM155.61 81.54C154.14 84.05 152.67 86.46 151.16 88.76L147.41 88.76C147.9 88.06 148.41 87.28 148.98 86.45C149.54 85.62 150.05 84.7 150.54 83.79C150 82.99 149.5 82.22 148.98 81.46L147.63 79.38L146.54 77.61L145.73 76.3C145.59 76.08 144.43 74.02 144.43 74.02C144.97 73.69 145.59 73.47 146.23 73.4C146.87 73.33 147.52 73.39 148.13 73.59C148.34 73.97 148.6 74.45 148.93 74.98L150.14 76.77C150.52 77.39 150.91 78.03 151.33 78.68L152.5 80.57C153.11 79.51 153.66 78.5 154.19 77.53C154.72 76.55 155.83 74.42 156.23 73.62C156.8 73.46 157.4 73.41 157.99 73.47C158.58 73.53 159.15 73.71 159.67 73.99C158.45 76.52 157.11 79.05 155.66 81.55L155.61 81.54ZM174.06 87.72C173.68 87.93 173.27 88.11 172.86 88.25C172.27 88.45 171.66 88.62 171.05 88.74C170.26 88.89 169.45 88.96 168.64 88.95C167.54 88.96 166.45 88.78 165.41 88.43C164.44 88.13 163.55 87.63 162.81 86.95C162.05 86.24 161.46 85.38 161.07 84.44C160.63 83.33 160.41 82.16 160.43 80.97C160.42 79.84 160.63 78.7 161.07 77.64C161.47 76.71 162.06 75.87 162.81 75.16C163.57 74.46 164.47 73.92 165.46 73.56C166.52 73.19 167.64 73.01 168.77 73.01C170.85 72.91 172.91 73.52 174.56 74.73C174.59 75.24 174.49 75.74 174.28 76.21C174.18 76.4 174.06 76.59 173.92 76.76C173.8 76.91 173.66 77.05 173.5 77.17C173.39 77.26 173.27 77.34 173.14 77.41L172.62 76.95C172.36 76.73 172.06 76.55 171.75 76.4C171.35 76.2 170.92 76.05 170.49 75.93C169.96 75.79 169.42 75.73 168.88 75.74C168.19 75.73 167.5 75.86 166.86 76.12C166.27 76.36 165.74 76.71 165.3 77.17C164.82 77.65 164.44 78.21 164.19 78.83C163.95 79.52 163.84 80.25 163.85 80.97C163.74 82.38 164.23 83.78 165.19 84.85C165.67 85.3 166.23 85.65 166.86 85.88C167.48 86.11 168.15 86.21 168.82 86.18C169.39 86.19 169.96 86.13 170.52 86.01C170.95 85.92 171.38 85.8 171.8 85.65C172.1 85.54 172.38 85.41 172.66 85.25L173.08 84.98L174.64 87.37C174.46 87.5 174.27 87.63 174.08 87.74L174.06 87.72ZM189.69 85.75C189.37 86.39 188.9 86.95 188.31 87.38C187.73 87.82 187.05 88.13 186.33 88.3C185.55 88.5 184.75 88.6 183.94 88.6L177.31 88.6L177.31 73.99C177.78 73.65 178.33 73.42 178.91 73.31C179.49 73.2 180.09 73.22 180.67 73.35L180.67 78.43L181.84 78.43C182.27 78.43 182.77 78.43 183.4 78.43C184.34 78.42 185.27 78.52 186.19 78.71C186.96 78.85 187.68 79.14 188.33 79.55C188.92 79.92 189.4 80.43 189.7 81.03C190.04 81.77 190.2 82.56 190.17 83.36C190.19 84.21 190 85.05 189.62 85.83L189.69 85.75Z" fill="#21B14C" fill-opacity="1.000000" fill-rule="nonzero"/>
		<path id="Vector" d="M185.74 81.49C184.85 81.13 183.89 80.96 182.93 81.02L181.63 81.02C181.23 81.02 180.9 81.02 180.63 81.11L180.63 85.83L183.27 85.83C184.13 85.87 184.98 85.66 185.71 85.24C186.02 85.01 186.28 84.72 186.44 84.37C186.6 84.03 186.67 83.66 186.63 83.28C186.67 82.93 186.61 82.56 186.44 82.24C186.28 81.92 186.03 81.64 185.71 81.45L185.74 81.49Z" fill="#21B14C" fill-opacity="1.000000" fill-rule="nonzero"/>
		<path id="Vector" d="M121.77 78.68L121.13 77.2L120.77 76.33C120.69 76.48 120.57 76.76 120.39 77.17C120.21 77.58 120 78.07 119.77 78.65C119.53 79.23 119.25 79.85 118.97 80.53C118.69 81.21 118.4 81.91 118.11 82.59L123.41 82.59C123.14 81.91 122.85 81.23 122.56 80.53C122.28 79.83 122.02 79.23 121.77 78.65L121.77 78.68Z" fill="#21B14C" fill-opacity="1.000000" fill-rule="nonzero"/>
		<path id="Vector" d="M75.12 81.97C74.82 81.81 74.49 81.7 74.14 81.65C73.71 81.59 73.27 81.56 72.83 81.57C72.31 81.56 71.78 81.59 71.27 81.65L70.21 81.77L70.21 85.83L73.41 85.83C73.73 85.83 74.05 85.78 74.36 85.69C74.66 85.62 74.95 85.49 75.2 85.31C75.44 85.11 75.64 84.87 75.78 84.6C75.93 84.27 76 83.92 76 83.56C76.01 83.22 75.94 82.87 75.78 82.56C75.64 82.29 75.42 82.07 75.16 81.92L75.12 81.97Z" fill="#21B14C" fill-opacity="1.000000" fill-rule="nonzero"/>
		<path id="Vector" d="M138.7 76.16C138.47 76.09 138.22 76.03 137.97 76C137.68 75.99 137.39 75.99 137.1 76L134.91 76L134.91 81.08L135.63 81.2C136.02 81.26 136.42 81.29 136.82 81.28C137.39 81.3 137.97 81.22 138.52 81.03C138.91 80.9 139.27 80.68 139.56 80.4C139.81 80.15 140 79.85 140.1 79.52C140.2 79.22 140.25 78.9 140.25 78.58C140.25 78.1 140.12 77.62 139.88 77.2C139.76 76.97 139.6 76.77 139.39 76.6C139.19 76.43 138.96 76.3 138.7 76.22L138.7 76.16Z" fill="#21B14C" fill-opacity="1.000000" fill-rule="nonzero"/>
		<path id="Vector" d="M127.9 109.92L118.29 109.92C121.28 112.11 124.98 114.36 127.98 116.49C130.99 114.3 134.66 112.05 137.69 109.92L127.9 109.92Z" fill="#F02729" fill-opacity="1.000000" fill-rule="nonzero"/>
		<path id="Vector" d="M74.53 163.89C69.26 154.89 64.51 145.63 60.29 136.14C59.25 151.48 62.59 163.58 66.19 174.19C66.33 174.62 66.74 175.67 66.88 176.09C69.46 172.31 72.35 168.73 75.53 165.39C75.34 165.11 74.7 164.23 74.53 163.91L74.53 163.89Z" fill="#F02729" fill-opacity="1.000000" fill-rule="nonzero"/>
		<path id="Vector" d="M60.17 109.91L60.17 127.27C69.33 120.57 79.17 114.76 89.55 109.91L60.17 109.91Z" fill="#F02729" fill-opacity="1.000000" fill-rule="nonzero"/>
		<path id="Vector" d="M97.63 113.95L91.14 113.95C90.66 115.22 90.33 116.11 89.81 117.5L84.47 117.5C83.82 119.16 83.37 120.24 82.69 121.94L77.11 122.03C76.26 123.96 75.73 125.24 74.94 127.07L69.27 127.07L66.01 134.47L71.77 134.47C70.91 136.48 70.21 138.05 69.15 140.69L75.39 140.69C74.55 142.86 73.92 144.52 72.89 147.29L79.57 147.29C78.82 149.58 78.25 151.31 77.34 154.15L86.71 154.15C87.42 151.34 87.86 149.61 88.47 147.32L95.1 147.32C95.68 144.55 96.03 142.88 96.51 140.64L102.52 140.64C102.96 137.96 103.24 136.34 103.6 134.25L108.97 134.25C109.42 131.01 109.62 129.44 110.04 126.57L104.88 126.69C105.2 124.79 105.44 123.51 105.8 121.57L100.66 121.66L101.68 117.33L96.63 117.33C96.63 117.16 96.74 116.99 96.79 116.85C97.12 115.74 97.35 114.94 97.7 113.89L97.63 113.95ZM98.12 123.61C97.73 125.16 97.43 126.44 96.9 128.6L102.1 128.6C101.85 129.9 101.65 131.02 101.38 132.44L96 132.44C95.46 134.75 95.12 136.22 94.65 138.36L88.7 138.36C88.02 140.84 88.06 140.57 87.47 142.71L82.79 142.71C83.48 140.55 83.48 140.84 84.25 138.36L78.34 138.36L80.51 132.59L75.17 132.59L76.73 128.86L81.93 128.86C82.74 126.73 83.23 125.47 83.83 123.92L89.11 123.83C89.75 121.94 89.8 121.86 90.25 120.55L93.95 120.55C93.54 121.86 93.54 121.94 92.97 123.83L98.06 123.76L98.12 123.61Z" fill="#F02729" fill-opacity="1.000000" fill-rule="nonzero"/>
		<path id="Vector" d="M91.78 126.57L88.86 126.57L87.99 129.16L85.22 129.16C84.83 130.22 84.65 130.77 84.24 131.9L87.1 131.9L86.14 134.81L89.27 134.81C89.59 133.63 89.76 133.05 90.09 131.93L92.92 131.93C93.22 130.79 93.36 130.24 93.65 129.17L90.91 129.17C91.23 128.09 91.39 127.58 91.68 126.57L91.78 126.57Z" fill="#F02729" fill-opacity="1.000000" fill-rule="nonzero"/>
		<path id="Vector" d="M122.53 199.16C122.45 202.12 122.41 204.16 122.31 207.53L133.68 207.53C133.6 204.16 133.54 202.06 133.46 199.16L141.89 199.16C141.7 195.69 141.58 193.55 141.39 190.62L149.54 190.62C149.18 187.1 148.96 184.94 148.63 182.02L156.44 182.02C155.75 177.58 155.39 175.29 154.66 170.88L147.32 170.88C146.98 167.92 146.7 165.92 146.28 162.59L139.35 162.59C139.13 159.81 138.97 157.84 138.7 154.67L132.21 154.67C132.21 152.25 132.1 150.48 132.02 147.94C132.02 147.72 132.02 147.49 132.02 147.26L124 147.26C124 147.49 124 147.72 124 147.94C123.91 150.48 123.86 152.25 123.8 154.67L117.37 154.67C117.09 157.84 116.93 159.81 116.71 162.59L109.79 162.59C109.36 165.92 109.09 167.99 108.73 170.88L101.41 170.88C100.66 175.32 100.29 177.54 99.62 182.02L107.42 182.02C107.09 184.98 106.88 187.1 106.53 190.62L114.68 190.62C114.48 193.58 114.37 195.69 114.17 199.16L122.6 199.16L122.53 199.16ZM111.85 179.21C112.04 177.3 112.2 175.76 112.4 173.88L119.08 173.88C119.27 170.76 119.38 168.88 119.55 166.38L125.44 166.38C125.44 163.42 125.44 162.69 125.55 160.31L130.45 160.31C130.45 162.69 130.45 163.36 130.56 166.38L136.44 166.38C136.61 168.88 136.72 170.82 136.91 173.88L143.59 173.88C143.79 175.76 143.95 177.3 144.14 179.21L137.22 179.21C137.41 182.36 137.52 184.28 137.66 186.93L131.01 186.93C131.01 190.1 131.1 190.44 131.15 193.05L124.91 193.05C124.91 190.44 125 190.09 125.06 186.93L118.4 186.93C118.55 184.28 118.65 182.36 118.83 179.21L111.92 179.21L111.85 179.21Z" fill="#F02729" fill-opacity="1.000000" fill-rule="nonzero"/>
		<path id="Vector" d="M125.92 182.49L130.07 182.49C130.07 180.87 130.07 180.05 130.07 178.44L134.3 178.44C134.22 176.83 134.19 176.01 134.13 174.4L129.96 174.4C129.96 172.8 129.96 172 129.96 170.42L126.09 170.42C126.09 172 126.09 172.8 126.09 174.4L121.92 174.4C121.92 176.01 121.83 176.83 121.75 178.44L125.98 178.44C125.98 180.05 125.98 180.87 125.98 182.49L125.92 182.49Z" fill="#F02729" fill-opacity="1.000000" fill-rule="nonzero"/>
		<path id="Vector" d="M181.46 163.89C181.29 164.17 180.65 165.05 180.48 165.37C183.67 168.72 186.58 172.31 189.17 176.1C189.31 175.67 189.72 174.62 189.86 174.21C193.47 163.6 196.81 151.49 195.76 136.16C191.54 145.66 186.79 154.95 181.52 163.97L181.46 163.89Z" fill="#F02729" fill-opacity="1.000000" fill-rule="nonzero"/>
		<path id="Vector" d="M195.82 109.91L166.44 109.91C176.82 114.75 186.66 120.57 195.82 127.27L195.82 109.91Z" fill="#F02729" fill-opacity="1.000000" fill-rule="nonzero"/>
		<path id="Vector" d="M186.74 127.27L181.07 127.18L178.88 122.13L173.3 122.04C172.62 120.4 172.19 119.29 171.52 117.6L166.18 117.6C165.68 116.21 165.34 115.32 164.87 114.05L158.37 114.05C158.7 115.12 158.95 115.91 159.28 117.01C159.28 117.16 159.33 117.32 159.42 117.5L154.38 117.5L155.39 121.82L150.25 121.73C150.61 123.67 150.85 124.96 151.18 126.85L146.06 126.85C146.48 129.71 146.7 131.29 147.13 134.53L152.52 134.53C152.86 136.62 153.14 138.25 153.58 140.92L159.61 140.92C160.07 143.14 160.43 144.83 161 147.6L167.65 147.6C168.24 149.89 168.69 151.61 169.39 154.44L178.76 154.44C177.85 151.59 177.29 149.86 176.53 147.57L183.21 147.57C182.18 144.8 181.55 143.13 180.71 140.97L186.96 140.97C185.86 138.33 185.19 136.77 184.33 134.75L190.09 134.75L186.85 127.35L186.74 127.27ZM175.48 132.59C176.34 134.86 176.89 136.31 177.65 138.36L171.69 138.36C172.47 140.82 172.47 140.54 173.14 142.7L168.46 142.7C167.85 140.54 167.91 140.82 167.21 138.35L161.42 138.35C160.93 136.29 160.59 134.81 160.06 132.43L154.67 132.43C154.41 130.95 154.2 129.88 153.95 128.58L159.15 128.58C158.64 126.42 158.33 125.15 157.93 123.59L163.02 123.67C162.45 121.77 162.45 121.7 162.04 120.38L165.74 120.38C166.19 121.7 166.24 121.77 166.88 123.67L172.16 123.76C172.77 125.24 173.25 126.57 174.06 128.7L179.27 128.7C179.81 129.97 180.26 131.07 180.84 132.43L175.48 132.43L175.48 132.59Z" fill="#F02729" fill-opacity="1.000000" fill-rule="nonzero"/>
		<path id="Vector" d="M168.01 129.2C167.65 128.14 167.48 127.62 167.15 126.61L164.21 126.61C164.52 127.62 164.67 128.09 164.99 129.22L162.25 129.22C162.54 130.28 162.68 130.83 162.98 131.97L165.8 131.97L166.65 134.84L169.77 134.84L168.88 131.94L171.74 131.94C171.35 130.82 171.14 130.27 170.77 129.2L167.99 129.2L168.01 129.2Z" fill="#F02729" fill-opacity="1.000000" fill-rule="nonzero"/>
		<path id="Vector" d="M168.68 163.48C167.37 162 166.01 160.35 164.6 158.77C163.04 156.94 161.31 155.1 159.62 153.28C158.45 152.02 157.27 150.77 156.08 149.55C154.35 147.75 152.43 145.85 150.38 143.93C148.66 142.28 146.85 140.61 145 138.93C143.14 137.24 140.78 135.15 138.61 133.27C136.92 131.79 135.21 130.31 133.52 128.83C135.24 127.35 136.92 125.87 138.52 124.39C139.5 123.54 140.45 122.69 141.39 121.91L143.9 119.87L149.01 115.59L154.1 111.43L156.08 109.86L145.54 109.86L143.56 111.34L138.38 115.49L135.85 117.51L132.88 119.92C131.32 121.21 129.67 122.56 128 123.95C126.33 122.56 124.69 121.21 123.11 119.92L120.14 117.51L117.63 115.49L112.43 111.34C111.73 110.78 111.07 110.26 110.45 109.86L99.99 109.86L101.96 111.43C103.22 112.45 104.95 113.86 107.05 115.59L112.15 119.87L114.62 121.97C115.54 122.75 116.49 123.59 117.47 124.45C119.04 125.84 120.75 127.31 122.47 128.89C120.78 130.37 119.07 131.85 117.38 133.33C115.23 135.21 113.07 137.11 111 138.99C108.92 140.87 107.34 142.34 105.61 143.99C103.58 145.91 101.66 147.81 99.9 149.61C98.73 150.82 97.54 152.08 96.37 153.34C94.68 155.17 93.02 157 91.39 158.83C90 160.41 88.63 162 87.32 163.54C79.71 172.42 74.66 178.88 73.58 180.64C72.77 181.99 70.89 185.34 72.81 188.71C76.65 195.47 81.28 201.81 86.61 207.59C87.2 208.36 87.98 208.97 88.88 209.38C89.78 209.79 90.77 209.98 91.76 209.95C94.17 209.59 106.39 208.58 108.12 207.81C109.86 207.05 110.42 205.82 108.86 204.53C101.17 198.01 94.26 190.71 88.25 182.76C86.8 180.3 90.03 177.39 93.79 172.22C94.98 170.61 96.31 168.85 97.73 167.01C99.15 165.18 100.76 163.18 102.41 161.18C105.39 157.54 108.66 153.78 111.78 150.23C113.45 148.37 115.15 146.56 116.79 144.86C118.1 143.53 119.35 142.27 120.6 141.09C121.35 140.36 122.16 139.61 122.85 138.94C124.57 137.3 126.28 135.71 127.98 134.15C129.67 135.71 131.38 137.3 133.12 138.94C133.87 139.64 134.68 140.42 135.38 141.09C136.61 142.26 137.88 143.53 139.17 144.86C140.83 146.56 142.51 148.37 144.2 150.23C147.42 153.78 150.62 157.54 153.57 161.18C155.13 163.18 156.69 165.14 158.25 167.01C159.81 168.89 160.98 170.61 162.17 172.22C165.93 177.39 169.16 180.3 167.71 182.76C166.26 185.22 155.22 198.06 147.12 204.53C145.56 205.82 146.12 207.05 147.84 207.81C149.55 208.58 160.79 209.65 163.21 210C164.37 210.17 165.55 210.03 166.62 209.6C167.7 209.18 168.64 208.48 169.33 207.59C174.67 201.81 179.31 195.48 183.15 188.71C185.07 185.34 183.15 181.99 182.38 180.64C181.32 178.88 176.25 172.42 168.65 163.54L168.68 163.48Z" fill="#F02729" fill-opacity="1.000000" fill-rule="nonzero"/>
		<path id="Vector" d="M95.23 215.39C104.3 223.77 115.52 230.19 128.46 235.36C140.46 230.63 151.45 223.86 160.89 215.39C139.16 211.9 116.96 211.9 95.23 215.39Z" fill="#F02729" fill-opacity="1.000000" fill-rule="nonzero"/>
	</g>
	<path id="5 звезд" d="M36.12 292.95C36.15 302.01 29.46 308.64 20.1 308.64C11.56 308.64 5.12 303.26 4.85 295.85L11.67 295.85C12.03 299.85 15.6 302.73 20.1 302.73C25.45 302.73 29.32 298.68 29.32 293.09C29.32 287.4 25.32 283.26 19.81 283.23C17 283.23 13.85 284.29 12.1 285.85L5.67 284.9L8.28 261.45L33.87 261.45L33.87 267.48L14.12 267.48L12.65 280.5L12.92 280.5C14.75 278.73 17.95 277.4 21.4 277.4C29.87 277.4 36.15 283.95 36.12 292.95ZM89.89 278.51Q91.33 276.2 91.33 272.98Q91.33 270.77 90.53 268.91Q89.54 266.63 87.33 264.87Q83.33 261.67 75.83 261.67Q70.6 261.67 66.55 263.04Q62.52 264.42 59.58 266.46L62.79 271.14Q65.48 269.4 68.38 268.35Q71.3 267.29 75.4 267.29Q79.49 267.29 81.91 269.03Q83.04 269.82 83.65 270.91Q84.35 272.17 84.35 273.82Q84.35 275.35 83.76 276.6Q82.97 278.28 81.12 279.45Q77.88 281.5 70.73 281.5L65.21 281.5L65.21 287.14L71.1 287.14Q77.76 287.14 81.54 289Q83.62 290.01 84.56 291.68Q85.32 293.03 85.32 294.81Q85.32 297.08 84.32 298.76Q83.58 300.01 82.27 300.93Q79.24 303.07 73.15 303.07Q69.96 303.07 66.27 302.28Q62.6 301.46 59.58 300.06L59.58 306.14Q62.46 307.48 66.04 308.06Q69.63 308.64 73.73 308.64Q83.01 308.64 87.71 304.87Q90.08 302.96 91.26 300.49Q92.41 298.06 92.41 295.07Q92.41 292.27 91.23 290.12Q90.5 288.77 89.3 287.68Q86.21 284.82 80.26 284.12L80.26 283.87Q85.26 283.17 88.29 280.42Q89.23 279.56 89.89 278.51ZM206.3 278.51Q207.75 276.2 207.75 272.98Q207.75 270.77 206.94 268.91Q205.95 266.63 203.75 264.87Q199.75 261.67 192.25 261.67Q187.02 261.67 182.97 263.04Q178.94 264.42 176 266.46L179.2 271.14Q181.89 269.4 184.8 268.35Q187.72 267.29 191.81 267.29Q195.91 267.29 198.33 269.03Q199.46 269.82 200.06 270.91Q200.77 272.17 200.77 273.82Q200.77 275.35 200.17 276.6Q199.38 278.28 197.53 279.45Q194.3 281.5 187.14 281.5L181.63 281.5L181.63 287.14L187.52 287.14Q194.17 287.14 197.95 289Q200.04 290.01 200.98 291.68Q201.74 293.03 201.74 294.81Q201.74 297.08 200.74 298.76Q199.99 300.01 198.69 300.93Q195.66 303.07 189.56 303.07Q186.38 303.07 182.69 302.28Q179.02 301.46 176 300.06L176 306.14Q178.88 307.48 182.45 308.06Q186.05 308.64 190.14 308.64Q199.42 308.64 204.13 304.87Q206.5 302.96 207.67 300.49Q208.83 298.06 208.83 295.07Q208.83 292.27 207.65 290.12Q206.91 288.77 205.72 287.68Q202.63 284.82 196.67 284.12L196.67 283.87Q201.67 283.17 204.7 280.42Q205.65 279.56 206.3 278.51ZM128.35 264.85Q123.84 262.29 115.13 262.29L101.76 262.29L101.76 308L118.15 308Q125.57 308 129.92 304.57Q131.45 303.37 132.44 301.82Q134.28 298.96 134.28 294.93Q134.28 291.35 132.99 289.15Q132.29 287.93 131.3 287.01Q130.49 286.27 129.49 285.73Q127.29 284.51 124.6 284.06L124.6 283.75Q127.87 283.17 129.89 281.27Q130.33 280.86 130.71 280.39Q131.04 279.98 131.32 279.54Q132.87 277.12 132.87 273.7Q132.87 269.41 130.77 266.86Q129.79 265.67 128.35 264.85ZM143.74 308L169.48 308L169.48 302.04L150.65 302.04L150.65 287.07L168.32 287.07L168.32 281.25L150.65 281.25L150.65 268.18L169.48 268.18L169.48 262.29L143.74 262.29L143.74 308ZM250.43 301.98L250.43 262.29L227.71 262.29Q227.14 269.53 225.47 276.7Q223.82 283.87 221.35 290.37Q218.88 296.85 216 301.98L212.49 301.98L212.49 320.42L219.07 320.42L219.07 308L249.66 308L249.66 320.42L256.32 320.42L256.32 301.98L250.43 301.98ZM123.68 279.65Q121.67 281.37 116.29 281.37L108.67 281.37L108.67 268.12L115.53 268.12Q120.84 268.12 123.26 269.64Q124.06 270.13 124.59 270.82Q125.7 272.24 125.7 274.53Q125.7 277.32 124.32 278.99Q124.03 279.35 123.68 279.65ZM232.29 276.35Q233.22 271.96 233.54 268.31L243.58 268.31L243.58 301.98L223.3 301.98Q225.16 298.53 226.85 294.25Q228.55 289.95 229.96 285.34Q231.36 280.73 232.29 276.35ZM108.67 302.23L108.67 287.01L116.6 287.01Q122.43 287.01 124.7 289.03Q125.62 289.84 126.17 290.85Q126.98 292.35 126.98 294.29Q126.98 296.94 125.78 298.81Q125.35 299.48 124.76 300.06Q122.56 302.23 117.06 302.23L108.67 302.23Z" fill="#000000" fill-opacity="1.000000" fill-rule="evenodd"/>
	<g opacity="0.300000">
		<rect id="StarFill" rx="-0.500000" width="51.000000" height="51.000000" transform="translate(102.500000 326.500000)" fill="#FFFFFF" fill-opacity="0"/>
		<g clip-path="url(#clip192_6721)">
			<path id="Vector" d="M113.73 376.19C112.48 376.83 111.06 375.7 111.31 374.26L114.01 358.89L102.56 347.98C101.49 346.96 102.04 345.1 103.48 344.89L119.4 342.63L126.49 328.57C127.13 327.3 128.87 327.3 129.51 328.57L136.6 342.63L152.52 344.89C153.96 345.1 154.51 346.96 153.44 347.98L141.99 358.89L144.69 374.26C144.94 375.7 143.52 376.83 142.27 376.19L128 368.85L113.73 376.19L113.73 376.19Z" fill="#FFA800" fill-opacity="1.000000" fill-rule="nonzero"/>
		</g>
	</g>
	<g opacity="0.300000">
		<rect id="StarFill" rx="-0.500000" width="35.000000" height="35.000000" transform="translate(56.500000 334.500000)" fill="#FFFFFF" fill-opacity="0"/>
		<g clip-path="url(#clip192_6723)">
			<path id="Vector" d="M64.12 368.74C63.25 369.19 62.27 368.41 62.44 367.41L64.31 356.77L56.39 349.22C55.65 348.51 56.03 347.22 57.02 347.08L68.04 345.51L72.96 335.78C73.4 334.9 74.6 334.9 75.04 335.78L79.96 345.51L90.98 347.08C91.97 347.22 92.35 348.51 91.61 349.22L83.69 356.77L85.55 367.41C85.73 368.41 84.75 369.19 83.88 368.74L74 363.67L64.12 368.74L64.12 368.74Z" fill="#FFA800" fill-opacity="1.000000" fill-rule="nonzero"/>
		</g>
	</g>
	<g opacity="0.300000">
		<rect id="StarFill" rx="-0.500000" width="23.000000" height="23.000000" transform="translate(22.500000 340.500000)" fill="#FFFFFF" fill-opacity="0"/>
		<g clip-path="url(#clip192_6725)">
			<path id="Vector" d="M27.41 363.16C26.83 363.46 26.18 362.94 26.29 362.27L27.54 355.18L22.25 350.14C21.76 349.67 22.02 348.81 22.68 348.72L30.03 347.67L33.3 341.18C33.6 340.6 34.4 340.6 34.69 341.18L37.97 347.67L45.32 348.72C45.98 348.81 46.23 349.67 45.74 350.14L40.46 355.18L41.7 362.27C41.82 362.94 41.16 363.46 40.58 363.16L34 359.78L27.41 363.16L27.41 363.16Z" fill="#FFA800" fill-opacity="1.000000" fill-rule="nonzero"/>
		</g>
	</g>
	<g opacity="0.300000">
		<rect id="StarFill" rx="-0.500000" width="35.000000" height="35.000000" transform="translate(164.500000 334.500000)" fill="#FFFFFF" fill-opacity="0"/>
		<g clip-path="url(#clip192_6727)">
			<path id="Vector" d="M172.12 368.74C171.26 369.19 170.27 368.41 170.44 367.41L172.31 356.77L164.39 349.22C163.64 348.51 164.03 347.22 165.02 347.08L176.04 345.51L180.96 335.78C181.4 334.9 182.6 334.9 183.04 335.78L187.96 345.51L198.98 347.08C199.97 347.22 200.35 348.51 199.61 349.22L191.69 356.77L193.55 367.41C193.73 368.41 192.75 369.19 191.88 368.74L182 363.67L172.12 368.74L172.12 368.74Z" fill="#FFA800" fill-opacity="1.000000" fill-rule="nonzero"/>
		</g>
	</g>
	<g opacity="0.300000">
		<rect id="StarFill" rx="-0.500000" width="23.000000" height="23.000000" transform="translate(210.500000 340.500000)" fill="#FFFFFF" fill-opacity="0"/>
		<g clip-path="url(#clip192_6729)">
			<path id="Vector" d="M215.41 363.16C214.84 363.46 214.18 362.94 214.29 362.27L215.54 355.18L210.26 350.14C209.76 349.67 210.02 348.81 210.68 348.72L218.03 347.67L221.3 341.18C221.6 340.6 222.4 340.6 222.69 341.18L225.97 347.67L233.32 348.72C233.98 348.81 234.23 349.67 233.74 350.14L228.46 355.18L229.7 362.27C229.82 362.94 229.16 363.46 228.58 363.16L222 359.78L215.41 363.16L215.41 363.16Z" fill="#FFA800" fill-opacity="1.000000" fill-rule="nonzero"/>
		</g>
	</g>
</svg>
