<svg width="142.287109" height="68.000000" viewBox="0 0 142.287 68" fill="none" xmlns="http://www.w3.org/2000/svg" xmlns:xlink="http://www.w3.org/1999/xlink">
	<desc>
			Created with Pixso.
	</desc>
	<defs>
		<clipPath id="clip192_6767">
			<rect id="StarFill" rx="-0.500000" width="19.000000" height="19.000000" transform="translate(92.500000 34.227539)" fill="white" fill-opacity="0"/>
		</clipPath>
		<clipPath id="clip192_6769">
			<rect id="StarFill" rx="-0.500000" width="12.000000" height="13.000000" transform="translate(75.500000 37.227539)" fill="white" fill-opacity="0"/>
		</clipPath>
		<clipPath id="clip192_6771">
			<rect id="StarFill" rx="-0.500000" width="8.000000" height="8.000000" transform="translate(62.500000 40.227539)" fill="white" fill-opacity="0"/>
		</clipPath>
		<clipPath id="clip192_6773">
			<rect id="StarFill" rx="-0.500000" width="12.000000" height="13.000000" transform="translate(116.500000 37.227539)" fill="white" fill-opacity="0"/>
		</clipPath>
		<clipPath id="clip192_6775">
			<rect id="StarFill" rx="-0.500000" width="8.000000" height="8.000000" transform="translate(133.500000 40.227539)" fill="white" fill-opacity="0"/>
		</clipPath>
	</defs>
	<path id="5 звезд" d="M73.47 23.02C73.48 25.85 71.39 27.92 68.47 27.92C65.8 27.92 63.78 26.24 63.7 23.93L65.83 23.93C65.94 25.18 67.06 26.08 68.47 26.08C70.14 26.08 71.35 24.81 71.35 23.06C71.35 21.29 70.1 19.99 68.37 19.98C67.5 19.98 66.51 20.32 65.97 20.8L63.96 20.51L64.77 13.18L72.77 13.18L72.77 15.06L66.6 15.06L66.14 19.13L66.22 19.13C66.79 18.58 67.79 18.16 68.87 18.16C71.52 18.16 73.48 20.21 73.47 23.02ZM90.27 18.51Q90.73 17.79 90.73 16.78Q90.73 16.09 90.47 15.51Q90.16 14.79 89.48 14.25Q88.23 13.25 85.88 13.25Q84.25 13.25 82.98 13.67Q81.72 14.1 80.8 14.74L81.81 16.2Q82.65 15.66 83.55 15.33Q84.47 15 85.75 15Q87.03 15 87.78 15.54Q88.13 15.79 88.32 16.13Q88.54 16.53 88.54 17.04Q88.54 17.52 88.36 17.91Q88.11 18.44 87.53 18.8Q86.52 19.44 84.29 19.44L82.56 19.44L82.56 21.2L84.4 21.2Q86.48 21.2 87.66 21.79Q88.32 22.1 88.61 22.62Q88.85 23.05 88.85 23.6Q88.85 24.31 88.53 24.84Q88.3 25.23 87.89 25.52Q86.95 26.18 85.04 26.18Q84.05 26.18 82.89 25.94Q81.75 25.68 80.8 25.24L80.8 27.14Q81.7 27.56 82.82 27.74Q83.94 27.92 85.22 27.92Q88.12 27.92 89.59 26.75Q90.33 26.15 90.7 25.38Q91.06 24.62 91.06 23.68Q91.06 22.81 90.69 22.14Q90.46 21.72 90.09 21.37Q89.12 20.48 87.26 20.26L87.26 20.18Q88.83 19.96 89.77 19.1Q90.07 18.84 90.27 18.51ZM126.65 18.51Q127.11 17.79 127.11 16.78Q127.11 16.09 126.85 15.51Q126.55 14.79 125.86 14.25Q124.61 13.25 122.26 13.25Q120.63 13.25 119.36 13.67Q118.1 14.1 117.18 14.74L118.19 16.2Q119.03 15.66 119.93 15.33Q120.85 15 122.13 15Q123.41 15 124.16 15.54Q124.51 15.79 124.7 16.13Q124.92 16.53 124.92 17.04Q124.92 17.52 124.74 17.91Q124.49 18.44 123.91 18.8Q122.9 19.44 120.67 19.44L118.94 19.44L118.94 21.2L120.78 21.2Q122.86 21.2 124.05 21.79Q124.7 22.1 124.99 22.62Q125.23 23.05 125.23 23.6Q125.23 24.31 124.91 24.84Q124.68 25.23 124.27 25.52Q123.33 26.18 121.42 26.18Q120.43 26.18 119.27 25.94Q118.13 25.68 117.18 25.24L117.18 27.14Q118.08 27.56 119.2 27.74Q120.32 27.92 121.6 27.92Q124.5 27.92 125.97 26.75Q126.71 26.15 127.08 25.38Q127.44 24.62 127.44 23.68Q127.44 22.81 127.07 22.14Q126.84 21.72 126.47 21.37Q125.51 20.48 123.64 20.26L123.64 20.18Q125.21 19.96 126.15 19.1Q126.45 18.84 126.65 18.51ZM102.29 14.24Q100.88 13.44 98.16 13.44L93.98 13.44L93.98 27.72L99.11 27.72Q101.43 27.72 102.78 26.65Q103.26 26.28 103.57 25.79Q104.15 24.9 104.15 23.64Q104.15 22.52 103.75 21.83Q103.52 21.45 103.22 21.17Q102.96 20.93 102.65 20.76Q101.96 20.38 101.12 20.24L101.12 20.14Q102.14 19.96 102.78 19.37Q102.91 19.24 103.03 19.09Q103.13 18.97 103.22 18.83Q103.71 18.07 103.71 17Q103.71 15.66 103.05 14.87Q102.74 14.5 102.29 14.24ZM107.1 27.72L115.15 27.72L115.15 25.86L109.26 25.86L109.26 21.18L114.79 21.18L114.79 19.36L109.26 19.36L109.26 15.28L115.15 15.28L115.15 13.44L107.1 13.44L107.1 27.72ZM140.44 25.84L140.44 13.44L133.34 13.44Q133.17 15.7 132.64 17.94Q132.13 20.18 131.36 22.21Q130.58 24.24 129.69 25.84L128.59 25.84L128.59 31.6L130.64 31.6L130.64 27.72L140.2 27.72L140.2 31.6L142.28 31.6L142.28 25.84L140.44 25.84ZM100.83 18.87Q100.21 19.4 98.52 19.4L96.14 19.4L96.14 15.26L98.29 15.26Q99.95 15.26 100.7 15.74Q100.95 15.89 101.12 16.1Q101.46 16.55 101.46 17.26Q101.46 18.14 101.04 18.66Q100.95 18.77 100.83 18.87ZM134.77 17.83Q135.07 16.46 135.16 15.32L138.3 15.32L138.3 25.84L131.97 25.84Q132.55 24.76 133.07 23.43Q133.61 22.08 134.05 20.64Q134.49 19.2 134.77 17.83ZM96.14 25.92L96.14 21.16L98.62 21.16Q100.44 21.16 101.15 21.79Q101.44 22.05 101.61 22.37Q101.87 22.83 101.87 23.44Q101.87 24.27 101.49 24.85Q101.36 25.06 101.17 25.24Q100.48 25.92 98.76 25.92L96.14 25.92Z" fill="#FFFFFF" fill-opacity="1.000000" fill-rule="evenodd"/>
	<rect id="StarFill" rx="-0.500000" width="19.000000" height="19.000000" transform="translate(92.500000 34.227539)" fill="#FFFFFF" fill-opacity="0"/>
	<g clip-path="url(#clip192_6767)">
		<path id="Vector" d="M96.51 53.03C96.03 53.27 95.48 52.84 95.58 52.29L96.62 46.37L92.21 42.18C91.8 41.79 92.01 41.07 92.57 40.99L98.69 40.12L101.42 34.71C101.67 34.23 102.33 34.23 102.58 34.71L105.31 40.12L111.43 40.99C111.98 41.07 112.19 41.79 111.78 42.18L107.38 46.37L108.42 52.29C108.52 52.84 107.97 53.27 107.48 53.03L102 50.21L96.51 53.03L96.51 53.03Z" fill="#FFA800" fill-opacity="1.000000" fill-rule="nonzero"/>
	</g>
	<rect id="StarFill" rx="-0.500000" width="12.000000" height="13.000000" transform="translate(75.500000 37.227539)" fill="#FFFFFF" fill-opacity="0"/>
	<g clip-path="url(#clip192_6769)">
		<path id="Vector" d="M77.93 50.24C77.62 50.41 77.26 50.1 77.33 49.72L78 45.58L75.14 42.64C74.87 42.37 75.01 41.86 75.37 41.81L79.35 41.2L81.12 37.42C81.28 37.07 81.71 37.07 81.87 37.42L83.65 41.2L87.63 41.81C87.99 41.86 88.13 42.37 87.86 42.64L85 45.58L85.67 49.72C85.73 50.1 85.38 50.41 85.06 50.24L81.5 48.26L77.93 50.24L77.93 50.24Z" fill="#FFA800" fill-opacity="1.000000" fill-rule="nonzero"/>
	</g>
	<rect id="StarFill" rx="-0.500000" width="8.000000" height="8.000000" transform="translate(62.500000 40.227539)" fill="#FFFFFF" fill-opacity="0"/>
	<g clip-path="url(#clip192_6771)">
		<path id="Vector" d="M64.03 48.41C63.81 48.52 63.56 48.33 63.61 48.08L64.07 45.42L62.09 43.53C61.91 43.35 62 43.03 62.25 42.99L65.01 42.6L66.24 40.17C66.34 39.95 66.65 39.95 66.76 40.17L67.99 42.6L70.74 42.99C70.99 43.03 71.08 43.35 70.9 43.53L68.92 45.42L69.38 48.08C69.43 48.33 69.18 48.52 68.96 48.41L66.5 47.14L64.03 48.41L64.03 48.41Z" fill="#FFA800" fill-opacity="1.000000" fill-rule="nonzero"/>
	</g>
	<rect id="StarFill" rx="-0.500000" width="12.000000" height="13.000000" transform="translate(116.500000 37.227539)" fill="#FFFFFF" fill-opacity="0"/>
	<g clip-path="url(#clip192_6773)">
		<path id="Vector" d="M118.93 50.24C118.62 50.41 118.26 50.1 118.33 49.72L119 45.58L116.14 42.64C115.87 42.37 116.01 41.86 116.37 41.81L120.35 41.2L122.12 37.42C122.28 37.07 122.71 37.07 122.87 37.42L124.65 41.2L128.63 41.81C128.99 41.86 129.13 42.37 128.86 42.64L126 45.58L126.67 49.72C126.73 50.1 126.38 50.41 126.06 50.24L122.5 48.26L118.93 50.24L118.93 50.24Z" fill="#FFA800" fill-opacity="1.000000" fill-rule="nonzero"/>
	</g>
	<rect id="StarFill" rx="-0.500000" width="8.000000" height="8.000000" transform="translate(133.500000 40.227539)" fill="#FFFFFF" fill-opacity="0"/>
	<g clip-path="url(#clip192_6775)">
		<path id="Vector" d="M135.03 48.41C134.81 48.52 134.56 48.33 134.61 48.08L135.07 45.42L133.09 43.53C132.91 43.35 133 43.03 133.25 42.99L136.01 42.6L137.24 40.17C137.35 39.95 137.64 39.95 137.76 40.17L138.99 42.6L141.74 42.99C141.99 43.03 142.08 43.35 141.9 43.53L139.92 45.42L140.38 48.08C140.43 48.33 140.18 48.52 139.96 48.41L137.5 47.14L135.03 48.41L135.03 48.41Z" fill="#FFA800" fill-opacity="1.000000" fill-rule="nonzero"/>
	</g>
	<path id="Vector" d="M26 0L0 0L0 35.81C0 56.29 26 68 26 68C26 68 52 56.28 52 35.81L52 0L26 0Z" fill="#FFFFFF" fill-opacity="1.000000" fill-rule="nonzero"/>
	<path id="Vector" d="M3.24 17.1L48.76 17.1L48.76 2.57L3.24 2.57L3.24 17.1ZM9.28 12.35C8.82 12.68 8.26 12.83 7.71 12.77L5.51 12.77L5.51 8.04C5.5 7.96 5.51 7.88 5.54 7.8C5.57 7.72 5.61 7.65 5.66 7.58C5.8 7.47 5.97 7.42 6.14 7.44L9.5 7.44C9.53 7.61 9.53 7.78 9.5 7.95C9.47 8.12 9.4 8.28 9.3 8.42L6.61 8.42L6.61 9.4L7.03 9.37C7.17 9.37 7.33 9.37 7.51 9.37C7.83 9.37 8.14 9.4 8.44 9.46C8.69 9.5 8.94 9.6 9.15 9.74C9.35 9.87 9.5 10.05 9.61 10.26C9.72 10.51 9.77 10.77 9.76 11.04C9.79 11.29 9.75 11.53 9.67 11.76C9.58 11.99 9.45 12.2 9.28 12.38L9.28 12.35ZM14.13 9.62C14.13 9.62 14.3 9.69 14.3 10.14C14.3 10.59 14.14 10.62 14.14 10.62L11.83 10.62L11.83 11.8L14.26 11.8C14.43 12.1 14.5 12.45 14.45 12.79L10.7 12.79L10.7 8.04C10.69 7.96 10.7 7.87 10.73 7.79C10.76 7.71 10.81 7.64 10.87 7.58C10.93 7.52 11 7.48 11.08 7.46C11.16 7.43 11.25 7.43 11.33 7.44L14.47 7.44C14.53 7.61 14.54 7.78 14.5 7.96C14.47 8.13 14.39 8.29 14.28 8.42L11.83 8.42L11.83 9.6L14.13 9.62ZM19.92 12.8L18.8 12.8L18.8 8.42L18.49 8.42C18.29 8.42 18.09 8.45 17.91 8.5C17.75 8.55 17.61 8.64 17.49 8.75C17.37 8.87 17.28 9.02 17.21 9.17C17.07 9.56 16.96 9.96 16.86 10.36C16.82 10.57 16.29 12.77 16.29 12.77L15.16 12.77C15.28 12.32 15.8 10.28 15.83 10.11C15.93 9.6 16.08 9.1 16.27 8.62C16.4 8.36 16.58 8.13 16.8 7.94C17.01 7.76 17.26 7.63 17.53 7.56C17.84 7.48 18.16 7.44 18.48 7.44L19.32 7.44C19.45 7.43 19.58 7.45 19.71 7.49C19.79 7.52 19.86 7.57 19.91 7.65L19.92 12.8ZM25.28 12.8C25.24 12.68 25.18 12.53 25.11 12.34L24.84 11.66L22.3 11.66C22.2 11.92 22.11 12.18 22.04 12.34C21.97 12.5 21.91 12.68 21.86 12.8L20.72 12.8C20.83 12.49 20.96 12.17 21.09 11.85C21.22 11.52 21.35 11.2 21.49 10.88L21.87 9.95C22 9.65 22.12 9.37 22.23 9.13C22.34 8.88 22.43 8.65 22.51 8.46C22.6 8.27 22.67 8.12 22.72 8.02C22.79 7.81 22.93 7.63 23.1 7.5C23.26 7.41 23.44 7.36 23.62 7.37C23.88 7.35 24.12 7.44 24.31 7.6C24.41 7.76 24.51 7.98 24.65 8.25C24.78 8.52 24.91 8.82 25.05 9.15C25.19 9.48 25.33 9.82 25.48 10.19C25.63 10.56 25.76 10.89 25.89 11.23C26.02 11.57 26.14 11.87 26.25 12.14L26.5 12.8L25.28 12.8ZM31.14 9.95C31.07 10.16 30.96 10.35 30.8 10.51C30.62 10.7 30.39 10.84 30.14 10.93C29.81 11.04 29.45 11.09 29.1 11.08C28.92 11.09 28.75 11.09 28.58 11.08L28.3 11.04L28.3 12.8L27.2 12.8L27.2 8.04C27.18 7.96 27.19 7.87 27.21 7.79C27.24 7.71 27.29 7.63 27.35 7.57C27.41 7.51 27.49 7.47 27.57 7.45C27.65 7.42 27.74 7.42 27.83 7.44L29.31 7.44C29.43 7.44 29.55 7.44 29.66 7.44C29.77 7.45 29.88 7.47 29.98 7.5C30.18 7.55 30.37 7.63 30.54 7.75C30.69 7.86 30.83 8 30.93 8.17C31.03 8.33 31.1 8.5 31.15 8.68C31.2 8.87 31.23 9.06 31.23 9.26C31.23 9.48 31.19 9.7 31.12 9.92L31.14 9.95ZM35.25 10.3C34.76 11.18 34.27 12.03 33.76 12.83L32.5 12.83C32.67 12.59 32.84 12.31 33.03 12.02C33.22 11.73 33.39 11.41 33.55 11.09C33.37 10.81 33.21 10.54 33.03 10.27L32.58 9.54L32.21 8.92L31.94 8.46C31.89 8.38 31.5 7.66 31.5 7.66C31.69 7.55 31.89 7.47 32.11 7.44C32.32 7.42 32.54 7.44 32.75 7.51C32.81 7.65 32.9 7.81 33.01 8L33.42 8.63C33.55 8.85 33.68 9.07 33.82 9.3L34.21 9.96C34.41 9.59 34.6 9.23 34.77 8.89C34.95 8.55 35.33 7.8 35.46 7.52C35.65 7.46 35.85 7.45 36.05 7.47C36.25 7.49 36.44 7.55 36.61 7.65C36.2 8.54 35.75 9.43 35.27 10.3L35.25 10.3ZM41.44 12.47C41.31 12.54 41.17 12.6 41.03 12.66C40.83 12.73 40.63 12.78 40.43 12.83C40.16 12.88 39.89 12.9 39.62 12.9C39.25 12.9 38.89 12.84 38.54 12.72C38.21 12.61 37.91 12.43 37.66 12.2C37.41 11.95 37.21 11.65 37.08 11.32C36.93 10.93 36.86 10.52 36.87 10.1C36.86 9.7 36.94 9.31 37.08 8.93C37.21 8.61 37.41 8.31 37.67 8.06C37.92 7.82 38.22 7.63 38.55 7.5C38.91 7.37 39.28 7.31 39.66 7.31C40.36 7.27 41.05 7.49 41.6 7.91C41.61 8.09 41.58 8.27 41.51 8.43C41.48 8.5 41.44 8.56 41.39 8.62C41.35 8.68 41.3 8.72 41.25 8.77C41.21 8.8 41.17 8.83 41.13 8.85L40.95 8.69C40.86 8.61 40.77 8.55 40.66 8.5C40.53 8.43 40.38 8.37 40.24 8.33C40.06 8.28 39.88 8.26 39.7 8.26C39.47 8.26 39.24 8.31 39.02 8.4C38.82 8.48 38.65 8.61 38.5 8.77C38.34 8.93 38.21 9.13 38.13 9.35C38.05 9.59 38.01 9.85 38.01 10.1C37.98 10.6 38.14 11.08 38.46 11.46C38.62 11.62 38.81 11.74 39.02 11.82C39.23 11.9 39.45 11.94 39.68 11.93C39.87 11.93 40.06 11.91 40.25 11.87C40.39 11.84 40.54 11.79 40.68 11.74C40.78 11.7 40.87 11.66 40.97 11.6L41.11 11.51L41.63 12.34C41.57 12.39 41.51 12.44 41.44 12.47L41.44 12.47ZM46.67 11.78C46.57 12 46.41 12.2 46.21 12.35C46.02 12.5 45.79 12.61 45.55 12.67C45.29 12.74 45.02 12.77 44.75 12.77L42.52 12.77L42.52 7.65C42.68 7.53 42.87 7.45 43.06 7.41C43.26 7.38 43.46 7.38 43.65 7.43L43.65 9.21L44.04 9.21C44.19 9.21 44.36 9.21 44.57 9.21C44.88 9.21 45.19 9.24 45.5 9.31C45.76 9.36 46 9.46 46.22 9.6C46.42 9.73 46.58 9.91 46.68 10.12C46.79 10.38 46.84 10.66 46.84 10.94C46.84 11.24 46.78 11.53 46.65 11.8L46.67 11.78Z" fill="#21B14C" fill-opacity="1.000000" fill-rule="nonzero"/>
	<path id="Vector" d="M45.35 10.28C45.05 10.16 44.73 10.1 44.41 10.12L43.97 10.12C43.84 10.12 43.73 10.12 43.64 10.15L43.64 11.8L44.52 11.8C44.81 11.82 45.09 11.75 45.34 11.6C45.44 11.52 45.53 11.41 45.58 11.29C45.64 11.17 45.66 11.04 45.65 10.91C45.66 10.79 45.64 10.66 45.58 10.55C45.53 10.43 45.44 10.34 45.34 10.27L45.35 10.28Z" fill="#21B14C" fill-opacity="1.000000" fill-rule="nonzero"/>
	<path id="Vector" d="M23.91 9.3L23.69 8.78L23.57 8.47C23.55 8.52 23.5 8.62 23.45 8.77C23.38 8.91 23.32 9.08 23.24 9.29C23.16 9.49 23.07 9.71 22.97 9.95C22.88 10.18 22.78 10.43 22.68 10.67L24.46 10.67C24.37 10.43 24.27 10.19 24.17 9.95C24.08 9.7 23.99 9.49 23.91 9.29L23.91 9.3Z" fill="#21B14C" fill-opacity="1.000000" fill-rule="nonzero"/>
	<path id="Vector" d="M8.27 10.45C8.17 10.39 8.06 10.36 7.94 10.34C7.8 10.32 7.65 10.31 7.5 10.31C7.33 10.31 7.15 10.32 6.98 10.34L6.62 10.38L6.62 11.8L7.7 11.8C7.81 11.8 7.91 11.79 8.02 11.76C8.12 11.73 8.22 11.69 8.3 11.62C8.38 11.55 8.45 11.47 8.49 11.37C8.54 11.26 8.57 11.13 8.57 11.01C8.57 10.89 8.54 10.77 8.49 10.66C8.45 10.56 8.37 10.49 8.28 10.43L8.27 10.45Z" fill="#21B14C" fill-opacity="1.000000" fill-rule="nonzero"/>
	<path id="Vector" d="M29.58 8.41C29.5 8.39 29.42 8.37 29.34 8.36C29.24 8.35 29.14 8.35 29.05 8.36L28.31 8.36L28.31 10.14L28.55 10.18C28.68 10.2 28.82 10.21 28.95 10.21C29.15 10.22 29.34 10.19 29.52 10.12C29.66 10.07 29.77 10 29.87 9.9C29.96 9.81 30.02 9.71 30.05 9.59C30.08 9.49 30.1 9.37 30.1 9.26C30.1 9.09 30.06 8.93 29.98 8.78C29.94 8.7 29.88 8.63 29.82 8.57C29.75 8.51 29.67 8.46 29.58 8.44L29.58 8.41Z" fill="#21B14C" fill-opacity="1.000000" fill-rule="nonzero"/>
	<path id="Vector" d="M25.96 20.25L22.74 20.25C23.74 21.02 24.98 21.81 25.99 22.56C27 21.79 28.23 21 29.24 20.25L25.96 20.25Z" fill="#F02729" fill-opacity="1.000000" fill-rule="nonzero"/>
	<path id="Vector" d="M8.08 39.19C6.31 36.03 4.72 32.78 3.3 29.45C2.95 34.83 4.07 39.08 5.28 42.8C5.33 42.95 5.46 43.32 5.51 43.46C6.37 42.14 7.34 40.88 8.41 39.71C8.35 39.61 8.13 39.31 8.08 39.19L8.08 39.19Z" fill="#F02729" fill-opacity="1.000000" fill-rule="nonzero"/>
	<path id="Vector" d="M3.26 20.25L3.26 26.34C6.33 23.99 9.63 21.95 13.11 20.25L3.26 20.25Z" fill="#F02729" fill-opacity="1.000000" fill-rule="nonzero"/>
	<path id="Vector" d="M15.82 21.67L13.64 21.67C13.48 22.11 13.37 22.42 13.2 22.91L11.41 22.91C11.19 23.49 11.04 23.87 10.81 24.47L8.94 24.5C8.66 25.18 8.48 25.63 8.21 26.27L6.31 26.27L5.22 28.87L7.15 28.87C6.86 29.57 6.63 30.12 6.27 31.05L8.36 31.05C8.08 31.81 7.87 32.39 7.52 33.36L9.76 33.36C9.51 34.17 9.32 34.77 9.02 35.77L12.16 35.77C12.4 34.78 12.54 34.18 12.75 33.37L14.97 33.37C15.16 32.4 15.28 31.81 15.44 31.03L17.46 31.03C17.6 30.09 17.7 29.52 17.82 28.79L19.62 28.79C19.77 27.65 19.84 27.1 19.98 26.09L18.25 26.14C18.36 25.47 18.43 25.02 18.56 24.34L16.83 24.37L17.17 22.86L15.48 22.86C15.48 22.79 15.52 22.74 15.54 22.68C15.65 22.29 15.72 22.01 15.84 21.65L15.82 21.67ZM15.98 25.06C15.85 25.6 15.75 26.05 15.57 26.81L17.32 26.81C17.23 27.26 17.16 27.66 17.08 28.16L15.27 28.16C15.09 28.97 14.98 29.48 14.82 30.23L12.83 30.23C12.59 31.1 12.61 31.01 12.41 31.76L10.84 31.76C11.07 31 11.07 31.1 11.33 30.23L9.35 30.23L10.08 28.21L8.29 28.21L8.81 26.9L10.56 26.9C10.83 26.15 10.99 25.71 11.19 25.17L12.96 25.13C13.18 24.47 13.19 24.44 13.34 23.98L14.58 23.98C14.45 24.44 14.45 24.47 14.25 25.13L15.96 25.11L15.98 25.06Z" fill="#F02729" fill-opacity="1.000000" fill-rule="nonzero"/>
	<path id="Vector" d="M13.86 26.09L12.88 26.09L12.58 27L11.66 27C11.53 27.38 11.47 27.57 11.33 27.96L12.29 27.96L11.97 28.99L13.01 28.99C13.12 28.57 13.18 28.37 13.29 27.97L14.24 27.97C14.34 27.57 14.39 27.38 14.48 27.01L13.56 27.01C13.67 26.63 13.73 26.45 13.83 26.09L13.86 26.09Z" fill="#F02729" fill-opacity="1.000000" fill-rule="nonzero"/>
	<path id="Vector" d="M24.16 51.56C24.14 52.59 24.12 53.31 24.09 54.49L27.9 54.49C27.87 53.31 27.85 52.57 27.83 51.56L30.65 51.56C30.59 50.34 30.55 49.59 30.49 48.56L33.22 48.56C33.1 47.33 33.02 46.57 32.91 45.54L35.53 45.54C35.3 43.99 35.18 43.18 34.93 41.64L32.47 41.64C32.36 40.6 32.26 39.9 32.12 38.73L29.8 38.73C29.73 37.75 29.67 37.06 29.58 35.95L27.41 35.95C27.41 35.1 27.37 34.48 27.35 33.59C27.35 33.51 27.35 33.43 27.35 33.35L24.66 33.35C24.66 33.43 24.66 33.51 24.66 33.59C24.63 34.48 24.61 35.1 24.59 35.95L22.43 35.95C22.34 37.06 22.29 37.75 22.21 38.73L19.9 38.73C19.75 39.9 19.66 40.62 19.54 41.64L17.08 41.64C16.83 43.19 16.71 43.97 16.48 45.54L19.1 45.54C18.99 46.58 18.92 47.33 18.8 48.56L21.53 48.56C21.46 49.6 21.43 50.34 21.36 51.56L24.19 51.56L24.16 51.56ZM20.58 44.56C20.65 43.89 20.7 43.35 20.77 42.69L23.01 42.69C23.07 41.59 23.11 40.94 23.16 40.06L25.14 40.06C25.14 39.02 25.14 38.77 25.17 37.93L26.82 37.93C26.82 38.77 26.82 39 26.85 40.06L28.83 40.06C28.88 40.94 28.92 41.62 28.98 42.69L31.22 42.69C31.29 43.35 31.34 43.89 31.41 44.56L29.09 44.56C29.15 45.66 29.19 46.34 29.24 47.27L27 47.27C27 48.38 27.04 48.5 27.05 49.41L24.96 49.41C24.96 48.5 24.99 48.37 25.01 47.27L22.78 47.27C22.83 46.34 22.86 45.66 22.92 44.56L20.61 44.56L20.58 44.56Z" fill="#F02729" fill-opacity="1.000000" fill-rule="nonzero"/>
	<path id="Vector" d="M25.3 45.71L26.69 45.71C26.69 45.14 26.69 44.85 26.69 44.29L28.11 44.29C28.08 43.72 28.07 43.44 28.05 42.87L26.65 42.87C26.65 42.31 26.65 42.03 26.65 41.48L25.36 41.48C25.36 42.03 25.36 42.31 25.36 42.87L23.96 42.87C23.96 43.44 23.93 43.72 23.9 44.29L25.32 44.29C25.32 44.85 25.32 45.14 25.32 45.71L25.3 45.71Z" fill="#F02729" fill-opacity="1.000000" fill-rule="nonzero"/>
	<path id="Vector" d="M43.92 39.19C43.86 39.28 43.64 39.59 43.59 39.7C44.66 40.88 45.63 42.14 46.5 43.47C46.55 43.32 46.68 42.95 46.73 42.8C47.94 39.08 49.06 34.84 48.71 29.46C47.3 32.79 45.7 36.05 43.94 39.21L43.92 39.19Z" fill="#F02729" fill-opacity="1.000000" fill-rule="nonzero"/>
	<path id="Vector" d="M48.73 20.25L38.88 20.25C42.36 21.95 45.66 23.99 48.73 26.34L48.73 20.25Z" fill="#F02729" fill-opacity="1.000000" fill-rule="nonzero"/>
	<path id="Vector" d="M45.69 26.34L43.79 26.31L43.05 24.54L41.18 24.51C40.96 23.93 40.81 23.54 40.58 22.95L38.79 22.95C38.63 22.46 38.51 22.15 38.35 21.7L36.18 21.7C36.29 22.08 36.37 22.36 36.48 22.74C36.48 22.79 36.5 22.85 36.53 22.91L34.84 22.91L35.18 24.43L33.46 24.4C33.58 25.08 33.66 25.53 33.77 26.19L32.05 26.19C32.19 27.2 32.26 27.75 32.41 28.89L34.22 28.89C34.33 29.62 34.42 30.19 34.57 31.13L36.59 31.13C36.75 31.91 36.87 32.5 37.06 33.47L39.29 33.47C39.49 34.28 39.64 34.88 39.87 35.87L43.01 35.87C42.71 34.87 42.52 34.26 42.26 33.46L44.5 33.46C44.16 32.49 43.95 31.9 43.66 31.15L45.76 31.15C45.39 30.22 45.17 29.67 44.88 28.97L46.81 28.97L45.72 26.37L45.69 26.34ZM41.91 28.21C42.2 29 42.38 29.51 42.64 30.23L40.64 30.23C40.9 31.09 40.9 30.99 41.13 31.75L39.56 31.75C39.35 30.99 39.38 31.09 39.14 30.23L37.2 30.23C37.04 29.5 36.92 28.99 36.74 28.15L34.94 28.15C34.85 27.63 34.78 27.26 34.7 26.8L36.44 26.8C36.27 26.04 36.16 25.6 36.03 25.05L37.74 25.08C37.54 24.41 37.54 24.39 37.41 23.92L38.65 23.92C38.8 24.39 38.82 24.41 39.03 25.08L40.8 25.11C41 25.63 41.16 26.09 41.44 26.84L43.18 26.84C43.36 27.29 43.51 27.67 43.71 28.15L41.91 28.15L41.91 28.21Z" fill="#F02729" fill-opacity="1.000000" fill-rule="nonzero"/>
	<path id="Vector" d="M39.41 27.02C39.29 26.64 39.23 26.46 39.12 26.11L38.14 26.11C38.24 26.46 38.29 26.63 38.4 27.02L37.48 27.02C37.58 27.4 37.62 27.59 37.72 27.99L38.67 27.99L38.95 29L40 29L39.7 27.98L40.66 27.98C40.53 27.58 40.46 27.39 40.33 27.02L39.4 27.02L39.41 27.02Z" fill="#F02729" fill-opacity="1.000000" fill-rule="nonzero"/>
	<path id="Vector" d="M39.63 39.04C39.19 38.52 38.74 37.95 38.26 37.39C37.74 36.75 37.16 36.1 36.6 35.46C36.2 35.02 35.81 34.58 35.41 34.16C34.83 33.52 34.18 32.86 33.5 32.18C32.92 31.61 32.32 31.02 31.69 30.43C31.07 29.84 30.28 29.11 29.55 28.45C28.99 27.93 28.41 27.41 27.85 26.89C28.42 26.37 28.99 25.85 29.52 25.33C29.85 25.03 30.17 24.73 30.49 24.46L31.33 23.74L33.04 22.24L34.74 20.78L35.41 20.23L31.88 20.23L31.21 20.75L29.47 22.21L28.63 22.92L27.63 23.76C27.11 24.22 26.56 24.69 26 25.18C25.43 24.69 24.89 24.22 24.36 23.76L23.36 22.92L22.52 22.21L20.78 20.75C20.54 20.56 20.32 20.37 20.11 20.23L16.61 20.23L17.27 20.78C17.69 21.14 18.27 21.64 18.97 22.24L20.68 23.74L21.51 24.48C21.82 24.76 22.14 25.05 22.47 25.35C22.99 25.84 23.57 26.35 24.14 26.91C23.58 27.43 23 27.95 22.44 28.47C21.72 29.13 20.99 29.79 20.3 30.45C19.6 31.11 19.07 31.63 18.49 32.2C17.81 32.88 17.17 33.54 16.58 34.18C16.18 34.6 15.79 35.04 15.39 35.48C14.83 36.12 14.27 36.77 13.73 37.41C13.26 37.97 12.8 38.52 12.36 39.06C9.81 42.18 8.12 44.44 7.75 45.06C7.48 45.53 6.85 46.71 7.5 47.89C8.79 50.26 10.34 52.49 12.12 54.51C12.32 54.78 12.58 55 12.88 55.14C13.18 55.29 13.52 55.35 13.85 55.34C14.66 55.22 18.75 54.86 19.33 54.59C19.91 54.32 20.1 53.89 19.58 53.44C17 51.15 14.69 48.59 12.67 45.8C12.19 44.94 13.27 43.92 14.53 42.11C14.93 41.54 15.37 40.92 15.85 40.28C16.33 39.64 16.86 38.94 17.42 38.24C18.42 36.96 19.51 35.64 20.56 34.39C21.12 33.74 21.69 33.11 22.24 32.51C22.68 32.04 23.1 31.6 23.51 31.19C23.77 30.93 24.04 30.67 24.27 30.43C24.85 29.86 25.42 29.3 25.99 28.75C26.56 29.3 27.13 29.86 27.71 30.43C27.96 30.68 28.24 30.95 28.47 31.19C28.88 31.6 29.31 32.04 29.74 32.51C30.3 33.11 30.86 33.74 31.43 34.39C32.5 35.64 33.58 36.96 34.57 38.24C35.09 38.94 35.61 39.62 36.14 40.28C36.66 40.94 37.05 41.54 37.45 42.11C38.71 43.92 39.79 44.94 39.31 45.8C38.82 46.67 35.12 51.17 32.41 53.44C31.88 53.89 32.07 54.32 32.65 54.59C33.22 54.86 36.99 55.24 37.8 55.36C38.19 55.42 38.58 55.37 38.94 55.22C39.3 55.07 39.62 54.83 39.85 54.51C41.64 52.49 43.19 50.26 44.48 47.89C45.12 46.71 44.48 45.53 44.23 45.06C43.87 44.44 42.17 42.18 39.62 39.06L39.63 39.04Z" fill="#F02729" fill-opacity="1.000000" fill-rule="nonzero"/>
	<path id="Vector" d="M15.01 57.25C18.05 60.19 21.81 62.44 26.15 64.25C30.17 62.59 33.86 60.22 37.02 57.25C29.74 56.02 22.29 56.02 15.01 57.25Z" fill="#F02729" fill-opacity="1.000000" fill-rule="nonzero"/>
</svg>
